<?xml version="1.0" encoding="UTF-8" standalone="no"?>
<svg
   xmlns:dc="http://purl.org/dc/elements/1.1/"
   xmlns:cc="http://creativecommons.org/ns#"
   xmlns:rdf="http://www.w3.org/1999/02/22-rdf-syntax-ns#"
   xmlns:svg="http://www.w3.org/2000/svg"
   xmlns="http://www.w3.org/2000/svg"
   style="fill:none"
   id="svg827"
   version="1.1"
   viewBox="0 0 36 36"
   height="36"
   width="36">
  <metadata
     id="metadata833">
    <rdf:RDF>
      <cc:Work
         rdf:about="">
        <dc:format>image/svg+xml</dc:format>
        <dc:type
           rdf:resource="http://purl.org/dc/dcmitype/StillImage" />
        <dc:title></dc:title>
      </cc:Work>
    </rdf:RDF>
  </metadata>
  <defs
     id="defs831" />
  <path
     style="fill:#ffffff"
     id="path825"
     d="M 6.25,2.5 C 4.1789,2.5 2.49999,4.1788999 2.49999,6.2499999 V 29.75 c 0,2.0711 1.67891,3.75 3.75001,3.75 h 23.4999 c 2.0711,0 3.75,-1.6789 3.75,-3.75 v -8.5 c 0,-0.6904 0.5597,-1.25 1.25,-1.25 0.6904,0 1.25,0.5596 1.25,1.25 v 8.5 c 0,3.4518 -2.7982,6.25 -6.25,6.25 H 6.25 C 2.79821,36 0,33.2018 0,29.75 V 6.2499999 C 0,2.79822 2.79821,0 6.25,0 h 8.5 C 15.4403,0 16,0.55964 16,1.25 16,1.94036 15.4403,2.5 14.75,2.5 Z M 21.0002,1.25 c 0,-0.69036 0.5596,-1.25 1.25,-1.25 H 34.75 C 35.4404,0 36,0.55964 36,1.25 v 12.5 C 36,14.4404 35.4404,15 34.75,15 34.0597,15 33.5,14.4404 33.5,13.75 V 4.2675999 L 23.1338,14.6338 c -0.4881,0.4881 -1.2796,0.4881 -1.7677,0 -0.4882,-0.4882 -0.4882,-1.2796 0,-1.7678 L 31.732,2.5 h -9.4818 c -0.6904,0 -1.25,-0.55964 -1.25,-1.25 z" />
</svg>
