<?xml version="1.0" encoding="UTF-8" standalone="no"?>
<svg
   xmlns:dc="http://purl.org/dc/elements/1.1/"
   xmlns:cc="http://creativecommons.org/ns#"
   xmlns:rdf="http://www.w3.org/1999/02/22-rdf-syntax-ns#"
   xmlns:svg="http://www.w3.org/2000/svg"
   xmlns="http://www.w3.org/2000/svg"
   id="svg3130"
   version="1.1"
   viewBox="0 0 22.944672 24.782671"
   height="24.782671mm"
   width="22.944672mm">
  <defs
     id="defs3124" />
  <metadata
     id="metadata3127">
    <rdf:RDF>
      <cc:Work
         rdf:about="">
        <dc:format>image/svg+xml</dc:format>
        <dc:type
           rdf:resource="http://purl.org/dc/dcmitype/StillImage" />
        <dc:title></dc:title>
      </cc:Work>
    </rdf:RDF>
  </metadata>
  <g
     transform="translate(-219.84909,-60.090807)"
     id="layer1">
    <path
       id="path991-0"
       d="m 219.84927,84.013578 c 0.0105,-1.54791 1.25732,-3.64443 2.71702,-4.56852 0.73312,-0.46413 0.73478,-0.47151 0.22938,-1.02527 -1.38924,-1.52216 -1.77787,-3.97923 -0.90128,-5.69833 0.25443,-0.49898 0.91092,-1.26542 1.45885,-1.70321 1.78373,-1.42515 5.15674,-1.17819 6.53144,0.47822 0.30876,0.37203 0.43779,0.29869 1.12966,-0.64212 0.4296,-0.58417 0.86009,-1.06591 0.95664,-1.07054 0.0965,-0.005 0.39227,-0.1727 0.65716,-0.37349 0.45783,-0.34705 0.44213,-0.41958 -0.3178,-1.46864 -1.45113,-2.00324 -1.34677,-4.37949 0.27339,-6.22476 2.1158,-2.40977 5.9385,-2.09393 7.66822,0.63356 1.19749,1.88828 1.00517,4.34356 -0.46061,5.88043 l -0.65585,0.68765 0.94767,0.72282 c 1.28356,0.97903 2.19681,2.42774 2.47749,3.9301 l 0.23311,1.24783 h -0.75454 c -0.60588,0 -0.78778,-0.14336 -0.92318,-0.7276 -0.87812,-3.78893 -5.21888,-5.44502 -8.04305,-3.06862 -0.98529,0.82907 -1.85196,2.44414 -1.85398,3.45495 -0.002,1.22076 -0.50664,2.65691 -1.23788,3.52595 l -0.68987,0.81986 0.96488,0.79533 c 1.21861,1.00449 2.20771,2.67881 2.43969,4.12982 0.17794,1.11298 0.17166,1.12448 -0.61397,1.12448 -0.71231,0 -0.8102,-0.10179 -0.95415,-0.99219 -0.50272,-3.1096 -4.20023,-4.96006 -7.02819,-3.51733 -1.35155,0.68951 -2.34275,1.91534 -2.70182,3.3414 -0.24469,0.97173 -0.40007,1.16812 -0.92419,1.16812 -0.53563,0 -0.62918,-0.12887 -0.62424,-0.8599 z m 8.43791,-6.48688 c 0.86074,-0.63687 1.49257,-2.35123 1.23896,-3.36169 -0.1039,-0.414 -0.58671,-1.15052 -1.07291,-1.63671 -0.71821,-0.71823 -1.08985,-0.88399 -1.98189,-0.88399 -2.13434,0 -3.45289,1.28597 -3.45289,3.36757 0,2.60558 3.12814,4.09867 5.26873,2.51482 z m 9.5565,-9.72333 c 1.62564,-0.84065 2.11711,-3.41625 0.92274,-4.83569 -1.35166,-1.60635 -3.50507,-1.75496 -4.92047,-0.33956 -2.68592,2.68595 0.59591,6.93442 3.99773,5.17525 z"
       style="fill:#ffffff;stroke-width:0.26458341" />
  </g>
</svg>
