<?xml version="1.0" encoding="UTF-8" standalone="no"?>
<svg
   xmlns:dc="http://purl.org/dc/elements/1.1/"
   xmlns:cc="http://creativecommons.org/ns#"
   xmlns:rdf="http://www.w3.org/1999/02/22-rdf-syntax-ns#"
   xmlns:svg="http://www.w3.org/2000/svg"
   xmlns="http://www.w3.org/2000/svg"
   id="svg2564"
   version="1.1"
   viewBox="0 0 21.16655 26.281965"
   height="26.281965mm"
   width="21.16655mm">
  <defs
     id="defs2558" />
  <metadata
     id="metadata2561">
    <rdf:RDF>
      <cc:Work
         rdf:about="">
        <dc:format>image/svg+xml</dc:format>
        <dc:type
           rdf:resource="http://purl.org/dc/dcmitype/StillImage" />
        <dc:title></dc:title>
      </cc:Work>
    </rdf:RDF>
  </metadata>
  <g
     transform="translate(-217.71434,-19.275684)"
     id="layer1">
    <path
       id="path989-8"
       d="m 225.15477,43.213921 c -3.54757,-1.32767 -6.34552,-2.44315 -6.21767,-2.47885 0.12785,-0.0357 2.97087,0.32698 6.31783,0.80596 3.34696,0.47897 6.17468,0.82347 6.28382,0.76556 0.10914,-0.0579 0.19843,-4.325 0.19843,-9.4824 0,-8.059384 -0.0545,-9.377089 -0.38762,-9.377089 -0.39874,0 -7.58143,1.490721 -8.40973,1.745385 -0.42433,0.130466 -0.46301,0.678818 -0.46301,6.564964 v 6.42261 l -2.1828,0.97004 c -1.20054,0.53353 -2.2721,0.96908 -2.38124,0.9679 -0.10914,-10e-4 -0.19844,-3.50409 -0.19844,-7.78423 v -7.782073 l 1.78593,-0.677275 c 0.98227,-0.372499 4.13506,-1.559602 7.00622,-2.638007 l 5.22028,-1.960732 3.57707,0.953701 3.57705,0.953702 v 11.031964 11.03197 l -3.37342,1.11915 c -1.85538,0.61553 -3.49248,1.15122 -3.638,1.19042 -0.14552,0.0392 -3.16713,-1.015 -6.7147,-2.34267 z"
       style="fill:#008542;stroke-width:0.26458341" />
  </g>
</svg>
