<?xml version="1.0" encoding="UTF-8" standalone="no"?>
<svg
   xmlns:dc="http://purl.org/dc/elements/1.1/"
   xmlns:cc="http://creativecommons.org/ns#"
   xmlns:rdf="http://www.w3.org/1999/02/22-rdf-syntax-ns#"
   xmlns:svg="http://www.w3.org/2000/svg"
   xmlns="http://www.w3.org/2000/svg"
   id="svg8224"
   version="1.1"
   viewBox="0 0 33.602083 29.897915"
   height="113"
   width="127">
  <defs
     id="defs8218" />
  <metadata
     id="metadata8221">
    <rdf:RDF>
      <cc:Work
         rdf:about="">
        <dc:format>image/svg+xml</dc:format>
        <dc:type
           rdf:resource="http://purl.org/dc/dcmitype/StillImage" />
        <dc:title></dc:title>
      </cc:Work>
    </rdf:RDF>
  </metadata>
  <g
     transform="translate(-252.24249,-148.11978)"
     id="layer1">
    <path
       id="path3246-1"
       d="m 266.00084,169.29893 c -3.17429,-0.73036 -6.56097,-2.65811 -8.86349,-5.04526 l -1.19062,-1.23442 1.73681,-1.63499 c 2.07892,-1.95707 4.02349,-3.15196 6.64128,-4.08091 2.78189,-0.98721 6.65553,-0.98721 9.43742,0 2.63677,0.93567 4.57474,2.13196 6.64127,4.09954 l 1.73682,1.65364 -1.73682,1.65365 c -2.06688,1.96792 -4.02194,3.17487 -6.5886,4.06746 -2.34862,0.81677 -5.59002,1.03302 -7.81407,0.52129 z m 4.8335,-1.62481 c 4.23601,-1.76993 4.23601,-7.46525 0,-9.23518 -1.24284,-0.51929 -2.33879,-0.51929 -3.58163,0 -4.15249,1.73504 -4.2695,7.26342 -0.19355,9.14461 1.29982,0.59989 2.48795,0.62841 3.77518,0.0906 z m -2.94042,-3.51393 c -0.94926,-1.04892 -0.21967,-2.69116 1.19558,-2.69116 1.355,0 2.06159,1.82856 1.05766,2.73712 -0.639,0.5783 -1.70803,0.55649 -2.25324,-0.046 z m -4.54624,2.13749 c -1.05726,-2.49463 -1.13006,-4.19913 -0.25189,-5.89735 0.2368,-0.45792 0.36553,-0.89755 0.28608,-0.977 -0.20308,-0.2031 -2.82371,1.4224 -4.18216,2.59402 l -1.13633,0.9801 0.52303,0.5797 c 0.61845,0.68548 4.29608,3.18355 4.68679,3.18355 0.1562,0 0.18771,-0.19587 0.0745,-0.46302 z m 13.68342,-0.83889 c 1.07059,-0.71607 2.18188,-1.56279 2.46955,-1.88164 l 0.52303,-0.5797 -1.13635,-0.9801 c -1.35843,-1.17162 -3.97907,-2.79712 -4.18215,-2.59402 -0.0795,0.0795 0.0493,0.51908 0.28608,0.977 0.87817,1.69822 0.80537,3.40272 -0.25189,5.89735 -0.31588,0.74533 0.2121,0.55205 2.29173,-0.83889 z"
       style="fill:#ffffff;stroke-width:0.26458341" />
  </g>
</svg>
