<?xml version="1.0" encoding="UTF-8" standalone="no"?>
<svg
   xmlns:dc="http://purl.org/dc/elements/1.1/"
   xmlns:cc="http://creativecommons.org/ns#"
   xmlns:rdf="http://www.w3.org/1999/02/22-rdf-syntax-ns#"
   xmlns:svg="http://www.w3.org/2000/svg"
   xmlns="http://www.w3.org/2000/svg"
   id="svg1998"
   version="1.1"
   viewBox="0 0 24.870701 24.891148"
   height="24.891148mm"
   width="24.870701mm">
  <defs
     id="defs1992" />
  <metadata
     id="metadata1995">
    <rdf:RDF>
      <cc:Work
         rdf:about="">
        <dc:format>image/svg+xml</dc:format>
        <dc:type
           rdf:resource="http://purl.org/dc/dcmitype/StillImage" />
        <dc:title></dc:title>
      </cc:Work>
    </rdf:RDF>
  </metadata>
  <g
     transform="translate(-213.59441,17.826526)"
     id="layer1">
    <path
       id="path987-4"
       d="m 213.59441,6.7210775 c 0,-0.177777 0.67642,-1.30887 1.50315,-2.513539 l 1.50314,-2.190311 9.41086,0.0067 9.41087,0.0067 1.53699,2.242187 c 0.84535,1.233202 1.46339,2.361272 1.37344,2.506824 -0.25755,0.416704 -24.73845,0.358721 -24.73845,-0.0586 z m 21.96031,-1.421882 c 0,-0.08669 -0.2052,-0.504978 -0.45599,-0.929534 l -0.45597,-0.771919 -8.68291,0.06964 -8.6829,0.06964 -0.54435,0.859896 -0.54433,0.859896 h 9.68322 c 5.32577,0 9.68323,-0.07093 9.68323,-0.157615 z M 221.97285,0.25333748 c -0.097,-0.09701 -0.17639,-0.4542 -0.17639,-0.79375 0,-0.58344098 0.0945,-0.61735998 1.71979,-0.61735998 h 1.71978 v -0.926042 -0.926042 h -5.82081 -5.82081 v -7.4083335 -7.408336 h 12.43536 12.43534 v 7.408336 7.4083335 h -5.8208 -5.82079 v 0.926042 0.926042 h 1.58749 1.58749 v 0.79374998 0.79375 h -3.92464 c -2.15853,0 -4.004,-0.07937 -4.10101,-0.17639 z M 236.87762,-10.41819 v -5.820836 H 226.02977 215.1819 v 5.820836 5.8208335 h 10.84787 10.84785 z"
       style="fill:#008542;stroke-width:0.26458341" />
  </g>
</svg>
