<?xml version="1.0" encoding="UTF-8" standalone="no"?>
<svg
   xmlns:dc="http://purl.org/dc/elements/1.1/"
   xmlns:cc="http://creativecommons.org/ns#"
   xmlns:rdf="http://www.w3.org/1999/02/22-rdf-syntax-ns#"
   xmlns:svg="http://www.w3.org/2000/svg"
   xmlns="http://www.w3.org/2000/svg"
   id="svg5394"
   version="1.1"
   viewBox="0 0 23.386114 23.33391"
   height="23.33391mm"
   width="23.386114mm">
  <defs
     id="defs5388" />
  <metadata
     id="metadata5391">
    <rdf:RDF>
      <cc:Work
         rdf:about="">
        <dc:format>image/svg+xml</dc:format>
        <dc:type
           rdf:resource="http://purl.org/dc/dcmitype/StillImage" />
        <dc:title></dc:title>
      </cc:Work>
    </rdf:RDF>
  </metadata>
  <g
     transform="translate(-204.50933,-208.98186)"
     id="layer1">
    <path
       id="path3256-1"
       d="m 219.10645,231.94327 c -7.77584,-1.88512 -15.77346,-11.959 -14.45324,-18.20545 0.23672,-1.11998 0.55417,-1.6279 1.80065,-2.88105 1.23095,-1.23753 1.67576,-1.52135 2.38426,-1.52135 1.18796,0 2.36338,0.78497 3.81405,2.54709 1.6086,1.95395 1.64061,2.82972 0.1621,4.43373 -0.58209,0.63148 -1.05833,1.36192 -1.05833,1.62322 0,0.46265 5.76412,6.53746 6.67374,7.03347 0.35055,0.19114 0.68723,0.042 1.4552,-0.64479 2.15569,-1.92764 2.92134,-1.95442 5.04919,-0.17639 1.92003,1.60432 2.75461,3.09591 2.41642,4.31866 -0.30745,1.11162 -2.54017,3.16463 -3.87731,3.56526 -1.33055,0.39865 -2.43796,0.3752 -4.36673,-0.0924 z m 4.88378,-1.95376 c 1.53441,-0.97311 2.19311,-1.90648 1.82752,-2.58961 -0.3625,-0.67733 -2.85772,-2.98323 -3.22816,-2.98323 -0.1658,0 -0.84251,0.47625 -1.50378,1.05834 -0.98215,0.86452 -1.39959,1.05833 -2.27946,1.05833 -1.03315,0 -1.23153,-0.15438 -4.85752,-3.78042 -3.51429,-3.5143 -3.78038,-3.84993 -3.78038,-4.7684 0,-0.78944 0.2187,-1.22526 1.08808,-2.16845 0.8434,-0.91498 1.05283,-1.3209 0.93132,-1.80501 -0.20262,-0.80735 -2.63788,-3.08814 -3.29728,-3.08814 -0.80432,0 -2.60451,2.14256 -2.80234,3.33531 -1.02487,6.17916 8.5706,16.40848 15.47158,16.49357 0.89581,0.0111 1.51938,-0.18452 2.43042,-0.76229 z m -6.41349,-14.96555 v -4.10104 h 0.79375 0.79374 v 2.64584 c 0,1.4552 0.0878,2.64583 0.19512,2.64583 0.10732,0 1.88579,-1.68767 3.95215,-3.75034 3.24104,-3.23528 3.81379,-3.7032 4.17047,-3.40718 0.22741,0.18873 0.41347,0.4759 0.41347,0.63816 0,0.16226 -1.69509,1.99316 -3.76687,4.06866 l -3.76687,3.77362 h 2.70853 2.70855 v 0.79375 0.79375 h -4.10102 -4.10102 z"
       style="fill:#ffffff;stroke-width:0.26458341" />
  </g>
</svg>
