<?xml version="1.0" encoding="UTF-8" standalone="no"?>
<svg
   xmlns:dc="http://purl.org/dc/elements/1.1/"
   xmlns:cc="http://creativecommons.org/ns#"
   xmlns:rdf="http://www.w3.org/1999/02/22-rdf-syntax-ns#"
   xmlns:svg="http://www.w3.org/2000/svg"
   xmlns="http://www.w3.org/2000/svg"
   id="svg10018"
   version="1.1"
   viewBox="0 0 21.15358 26.45834"
   height="26.45834mm"
   width="21.15358mm">
  <defs
     id="defs10012" />
  <metadata
     id="metadata10015">
    <rdf:RDF>
      <cc:Work
         rdf:about="">
        <dc:format>image/svg+xml</dc:format>
        <dc:type
           rdf:resource="http://purl.org/dc/dcmitype/StillImage" />
        <dc:title></dc:title>
      </cc:Work>
    </rdf:RDF>
  </metadata>
  <g
     transform="translate(-195.79821,-133.33631)"
     id="layer1">
    <path
       id="path3242-2"
       d="m 196.32738,159.26548 c -0.51383,-0.51382 -0.52917,-0.88194 -0.52917,-12.7 0,-11.81807 0.0153,-12.18615 0.52917,-12.7 0.50303,-0.50303 0.88193,-0.52917 7.67287,-0.52917 6.79094,0 7.16984,0.0262 7.67287,0.52917 0.50699,0.50699 0.52917,0.88193 0.52917,8.94633 v 8.41716 l -0.79375,0.76047 -0.79374,0.76046 v -8.91304 -8.91305 h -6.61455 -6.61455 v 11.64167 11.64167 h 4.58068 4.58069 l 0.76045,0.79375 0.76046,0.79375 h -5.60572 c -5.25295,0 -5.63902,-0.0333 -6.13488,-0.52917 z m 11.69998,-1.92545 -1.6461,-1.6609 0.58676,-0.58674 0.58674,-0.58677 1.13655,1.11546 1.13656,1.11543 2.98547,-2.97704 2.98549,-2.97701 0.57647,0.61365 0.57649,0.61362 -3.50277,3.4956 c -1.92653,1.92256 -3.56415,3.49557 -3.63916,3.49557 -0.075,0 -0.87714,-0.7474 -1.7825,-1.66087 z m -6.40834,-1.77872 c 0,-0.77832 0.0262,-0.79375 1.35121,-0.79375 1.13917,0 1.3253,0.0675 1.18605,0.43043 -0.0908,0.23672 -0.0295,0.59391 0.13638,0.79375 0.24959,0.30072 0.0452,0.36332 -1.18605,0.36332 -1.47649,0 -1.48759,-0.006 -1.48759,-0.79375 z"
       style="fill:#008542;stroke-width:0.26458341" />
  </g>
</svg>
