<?xml version="1.0" encoding="UTF-8" standalone="no"?>
<svg
   xmlns:dc="http://purl.org/dc/elements/1.1/"
   xmlns:cc="http://creativecommons.org/ns#"
   xmlns:rdf="http://www.w3.org/1999/02/22-rdf-syntax-ns#"
   xmlns:svg="http://www.w3.org/2000/svg"
   xmlns="http://www.w3.org/2000/svg"
   id="svg13414"
   version="1.1"
   viewBox="0 0 21.466181 23.299641"
   height="23.299641mm"
   width="21.466181mm">
  <defs
     id="defs13408" />
  <metadata
     id="metadata13411">
    <rdf:RDF>
      <cc:Work
         rdf:about="">
        <dc:format>image/svg+xml</dc:format>
        <dc:type
           rdf:resource="http://purl.org/dc/dcmitype/StillImage" />
        <dc:title></dc:title>
      </cc:Work>
    </rdf:RDF>
  </metadata>
  <g
     transform="translate(-196.39786,-22.278751)"
     id="layer1">
    <path
       id="path3230-1"
       d="m 201.46007,44.647281 v -0.93121 h -2.5311 -2.53111 l 0.0837,-0.7276 0.0837,-0.7276 2.44739,-0.0761 2.44738,-0.0761 v -0.78383 -0.78383 h 1.71978 1.71978 v -0.79375 c 0,-0.70556 0.0882,-0.79375 0.79375,-0.79375 0.73075,0 0.79375,-0.0735 0.79375,-0.92604 v -0.92604 h -5.03124 -5.03125 l 0.0703,-7.34219 0.0703,-7.34219 10.64942,-0.0691 10.64942,-0.0692 v 7.411351 7.411319 h -4.89476 -4.89476 v 0.92604 c 0,0.85254 0.063,0.92604 0.79374,0.92604 0.70555,0 0.79375,0.0882 0.79375,0.79375 v 0.79375 h 1.71978 1.71978 v 0.79375 0.79375 h 2.38123 2.38124 v 0.79375 0.79375 h -2.36448 -2.36446 l -0.0829,0.8599 -0.0829,0.85989 -5.75466,0.0713 -5.75465,0.0713 z m 10.00473,-1.65881 0.0829,-0.8599 h -1.73655 -1.73654 v -0.79375 c 0,-0.70556 -0.0882,-0.79375 -0.79375,-0.79375 -0.70555,0 -0.79374,0.0882 -0.79374,0.79375 v 0.79375 h -1.71979 -1.71978 v 0.93277 0.93276 l 4.16716,-0.0729 4.16717,-0.0729 z m 4.81185,-13.298799 v -5.824301 l -9.06193,0.0696 -9.06193,0.0696 -0.0713,5.754691 -0.0713,5.754689 h 9.13324 9.13323 z"
       style="fill:#ffffff;stroke-width:0.26458341" />
  </g>
</svg>
