<?xml version="1.0" encoding="UTF-8" standalone="no"?>
<svg
   xmlns:dc="http://purl.org/dc/elements/1.1/"
   xmlns:cc="http://creativecommons.org/ns#"
   xmlns:rdf="http://www.w3.org/1999/02/22-rdf-syntax-ns#"
   xmlns:svg="http://www.w3.org/2000/svg"
   xmlns="http://www.w3.org/2000/svg"
   id="svg11150"
   version="1.1"
   viewBox="0 0 19.57906 26.394497"
   height="26.394497mm"
   width="19.57906mm">
  <defs
     id="defs11144" />
  <metadata
     id="metadata11147">
    <rdf:RDF>
      <cc:Work
         rdf:about="">
        <dc:format>image/svg+xml</dc:format>
        <dc:type
           rdf:resource="http://purl.org/dc/dcmitype/StillImage" />
        <dc:title></dc:title>
      </cc:Work>
    </rdf:RDF>
  </metadata>
  <g
     transform="translate(-199.60928,-234.66584)"
     id="layer1">
    <path
       id="path3238-9"
       d="m 199.60928,253.65201 v -7.40833 h 1.55621 1.5562 l 0.10771,-3.37344 c 0.0998,-3.12481 0.1647,-3.47771 0.88119,-4.78843 1.39274,-2.54781 4.29191,-3.89297 7.02874,-3.26125 1.90559,0.43987 3.43084,1.58398 4.3477,3.26125 0.71649,1.31072 0.78144,1.66362 0.8812,4.78843 l 0.1077,3.37344 h 1.55621 1.5562 v 7.40833 7.40833 h -9.78952 -9.78954 z m 17.99157,0 v -5.82083 h -8.20203 -8.20205 v 5.82083 5.82083 h 8.20205 8.20203 z m -3.17498,-10.32724 c 0,-4.04075 -0.69228,-5.55038 -3.0427,-6.63517 -2.49499,-1.15155 -5.31454,-0.0505 -6.51134,2.54262 -0.38174,0.82711 -0.48972,1.70868 -0.49427,4.03489 l -0.006,2.97657 h 5.02707 5.02705 z"
       style="fill:#ffffff;stroke-width:0.26458341" />
  </g>
</svg>
