<?xml version="1.0" encoding="UTF-8" standalone="no"?>
<svg
   xmlns:dc="http://purl.org/dc/elements/1.1/"
   xmlns:cc="http://creativecommons.org/ns#"
   xmlns:rdf="http://www.w3.org/1999/02/22-rdf-syntax-ns#"
   xmlns:svg="http://www.w3.org/2000/svg"
   xmlns="http://www.w3.org/2000/svg"
   id="svg14546"
   version="1.1"
   viewBox="0 0 26.469128 24.73855"
   height="24.73855mm"
   width="26.469128mm">
  <defs
     id="defs14540" />
  <metadata
     id="metadata14543">
    <rdf:RDF>
      <cc:Work
         rdf:about="">
        <dc:format>image/svg+xml</dc:format>
        <dc:type
           rdf:resource="http://purl.org/dc/dcmitype/StillImage" />
        <dc:title></dc:title>
      </cc:Work>
    </rdf:RDF>
  </metadata>
  <g
     transform="translate(-198.4321,-128.14858)"
     id="layer1">
    <path
       id="path3226-7"
       d="m 210.07371,143.759 v -9.12812 h 4.56854 4.56856 l 2.83974,2.84861 2.83973,2.84858 v 6.27951 6.27955 h -7.40828 -7.40829 z m 13.22908,2.51354 v -5.02708 h -2.51352 -2.51353 v -2.51354 -2.51354 h -3.30727 -3.30727 v 7.54062 7.54063 h 5.8208 5.82079 z m -1.3229,-6.69316 c 0,-0.0432 -0.47625,-0.54364 -1.05834,-1.11205 l -1.05832,-1.03343 v 1.11204 1.11202 h 1.05832 c 0.58209,0 1.05834,-0.0354 1.05834,-0.0786 z m -23.54779,-0.15669 c 0,-9.4787 0.0276,-10.05887 0.50613,-10.64948 0.49095,-0.60589 0.62446,-0.62463 4.45149,-0.62463 h 3.94537 l 1.17087,0.79375 1.17087,0.79375 7.14371,0.0713 c 8.71987,0.0871 8.06974,-0.25458 8.06974,4.24085 v 3.06289 l -0.79374,-0.76046 c -0.74932,-0.7179 -0.79375,-0.87617 -0.79375,-2.82763 v -2.06716 h -6.8177 -6.81771 l -1.0536,0.7276 c -1.00992,0.69744 -1.20992,0.73115 -4.8239,0.81328 l -3.77029,0.0857 v 7.3888 7.38881 h 4.10102 4.10102 v 0.79375 0.79375 h -4.89476 -4.89477 z m 8.85104,-8.27386 c 0.82703,-0.37682 0.8441,-0.60206 0.0859,-1.13316 -0.45772,-0.3206 -1.33715,-0.41188 -3.96873,-0.41188 h -3.38069 v 0.92604 0.92605 h 3.29483 c 1.93684,0 3.57258,-0.12655 3.96872,-0.30705 z"
       style="fill:#008542;stroke-width:0.26458341" />
  </g>
</svg>
