<?xml version="1.0" encoding="UTF-8" standalone="no"?>
<svg
   xmlns:dc="http://purl.org/dc/elements/1.1/"
   xmlns:cc="http://creativecommons.org/ns#"
   xmlns:rdf="http://www.w3.org/1999/02/22-rdf-syntax-ns#"
   xmlns:svg="http://www.w3.org/2000/svg"
   xmlns="http://www.w3.org/2000/svg"
   id="svg17385"
   version="1.1"
   viewBox="0 0 22.924482 22.985397"
   height="22.985397mm"
   width="22.924482mm">
  <defs
     id="defs17379" />
  <metadata
     id="metadata17382">
    <rdf:RDF>
      <cc:Work
         rdf:about="">
        <dc:format>image/svg+xml</dc:format>
        <dc:type
           rdf:resource="http://purl.org/dc/dcmitype/StillImage" />
        <dc:title></dc:title>
      </cc:Work>
    </rdf:RDF>
  </metadata>
  <g
     transform="translate(-180.54966,-262.07278)"
     id="layer1">
    <path
       id="path3216-9"
       d="m 190.25664,284.929 c -6.01058,-0.8777 -10.46043,-6.8924 -9.60043,-12.9766 0.87961,-6.223 6.87534,-10.7046 13.0464,-9.7517 3.73227,0.5764 7.10704,3.0725 8.65274,6.4002 3.90391,8.4042 -2.95667,17.663 -12.09871,16.3281 z m 3.67968,-1.6177 c 5.28619,-1.1216 8.89202,-6.3295 7.89417,-11.4015 -0.42823,-2.1766 -1.30121,-3.8381 -2.80882,-5.3457 -3.95065,-3.9507 -10.03043,-3.9507 -13.98107,0 -3.92273,3.9228 -3.95177,9.9434 -0.0672,13.9403 1.33708,1.3758 2.88481,2.2549 4.80882,2.7316 1.71268,0.4245 2.44629,0.4377 4.15413,0.075 z m -2.87349,-4.9934 c -3.2598,-0.7358 -4.84134,-4.2596 -3.22606,-7.1878 1.75863,-3.1882 6.63009,-3.1882 8.38873,0 2.01234,3.648 -1.17649,8.0877 -5.16267,7.1878 z"
       style="fill:#ffffff;stroke-width:0.26458341" />
  </g>
</svg>
