<?xml version="1.0" encoding="UTF-8" standalone="no"?>
<svg
   xmlns:dc="http://purl.org/dc/elements/1.1/"
   xmlns:cc="http://creativecommons.org/ns#"
   xmlns:rdf="http://www.w3.org/1999/02/22-rdf-syntax-ns#"
   xmlns:svg="http://www.w3.org/2000/svg"
   xmlns="http://www.w3.org/2000/svg"
   id="svg12282"
   version="1.1"
   viewBox="0 0 23.295321 23.151051"
   height="23.151051mm"
   width="23.295321mm">
  <defs
     id="defs12276" />
  <metadata
     id="metadata12279">
    <rdf:RDF>
      <cc:Work
         rdf:about="">
        <dc:format>image/svg+xml</dc:format>
        <dc:type
           rdf:resource="http://purl.org/dc/dcmitype/StillImage" />
        <dc:title></dc:title>
      </cc:Work>
    </rdf:RDF>
  </metadata>
  <g
     transform="translate(-189.43567,-340.609)"
     id="layer1">
    <path
       id="path3234-3"
       d="m 197.90831,356.35171 c 0,-4.07458 0.041,-7.40833 0.091,-7.40833 0.37924,0 7.96484,-1.61772 8.06764,-1.72051 0.0724,-0.0724 -2.15045,-0.13157 -4.93958,-0.13157 h -5.07115 v 7.40833 7.40833 h -3.31027 -3.31028 l 0.0691,-10.64948 0.0692,-10.64948 h 11.50932 11.5093 l 0.0692,10.64948 0.0692,10.64948 h -2.73631 c -2.07702,0 -3.84163,0.22313 -7.3238,0.92604 -2.52312,0.50933 -4.62686,0.92605 -4.67498,0.92605 -0.0481,0 -0.0875,-3.33375 -0.0875,-7.40834 z m 5.38691,4.76036 c 1.43483,-0.28988 2.65521,-0.52702 2.71195,-0.52702 0.0567,0 0.10317,-2.61938 0.10317,-5.82084 0,-3.20146 -0.0464,-5.82083 -0.10317,-5.82083 -0.12962,0 -5.11229,1.0052 -5.91607,1.19353 -0.59509,0.13941 -0.5953,0.14158 -0.5953,5.9603 v 5.82083 l 0.5953,-0.13946 c 0.32742,-0.0767 1.76927,-0.37663 3.20412,-0.66651 z m -8.82649,-8.19994 v -7.40833 h 6.61456 6.61454 v 7.40833 7.40833 h 1.72326 1.72325 l -0.0696,-9.06198 -0.0696,-9.06198 h -9.92181 -9.92182 l -0.0696,9.06198 -0.0696,9.06198 h 1.72326 1.72324 z"
       style="fill:#ffffff;stroke-width:0.26458341" />
  </g>
</svg>
