<?xml version="1.0" encoding="UTF-8" standalone="no"?>
<svg
   xmlns:dc="http://purl.org/dc/elements/1.1/"
   xmlns:cc="http://creativecommons.org/ns#"
   xmlns:rdf="http://www.w3.org/1999/02/22-rdf-syntax-ns#"
   xmlns:svg="http://www.w3.org/2000/svg"
   xmlns="http://www.w3.org/2000/svg"
   id="svg15112"
   version="1.1"
   viewBox="0 0 26.404575 24.628052"
   height="24.628052mm"
   width="26.404575mm">
  <defs
     id="defs15106" />
  <metadata
     id="metadata15109">
    <rdf:RDF>
      <cc:Work
         rdf:about="">
        <dc:format>image/svg+xml</dc:format>
        <dc:type
           rdf:resource="http://purl.org/dc/dcmitype/StillImage" />
        <dc:title></dc:title>
      </cc:Work>
    </rdf:RDF>
  </metadata>
  <g
     transform="translate(-189.39295,-169.78121)"
     id="layer1">
    <path
       id="path3224-9"
       d="m 200.26003,194.22302 c -1.44683,-0.30713 -3.39245,-1.17213 -4.44887,-1.97792 l -0.8348,-0.63672 -1.28777,1.30742 -1.28778,1.30746 -0.52915,-0.52919 c -0.52917,-0.52914 -0.52917,-0.52914 0.73647,-1.81414 l 1.26565,-1.28495 -0.82086,-1.21629 c -1.29035,-1.91196 -1.89703,-3.96809 -1.8892,-6.40284 0.004,-1.16417 0.11273,-2.47385 0.24219,-2.91042 0.20532,-0.69239 0.12452,-0.91807 -0.63267,-1.76723 -1.54556,-1.73323 -1.79188,-3.62524 -0.74539,-5.72529 1.56535,-3.14127 5.81544,-3.76132 8.19347,-1.19536 0.55191,0.59552 0.69571,0.62865 1.61728,0.37274 0.55634,-0.15446 1.78542,-0.28088 2.73131,-0.28088 0.94587,0 2.17496,0.12642 2.73129,0.28088 0.92158,0.25591 1.06538,0.22278 1.61728,-0.37274 1.57441,-1.69884 4.28112,-2.07352 6.32518,-0.87561 1.2704,0.74451 2.55671,2.82231 2.55386,4.12533 -0.003,1.26362 -0.56073,2.69507 -1.43095,3.67093 -0.75607,0.84789 -0.83793,1.07588 -0.63458,1.76723 0.12841,0.43657 0.23512,1.74625 0.23713,2.91042 0.004,2.43959 -0.60415,4.50906 -1.88223,6.40284 l -0.82086,1.21629 1.26564,1.28495 c 1.26564,1.285 1.26564,1.285 0.73649,1.81414 l -0.52917,0.52919 -1.28185,-1.30143 -1.28186,-1.30146 -1.05241,0.76237 c -2.21595,1.60523 -6.13587,2.41916 -8.86284,1.84028 z m 4.97381,-1.74553 c 2.9617,-0.86606 5.0422,-2.69399 6.42187,-5.64227 1.05033,-2.24451 1.12645,-5.12884 0.19809,-7.50655 -0.7828,-2.00496 -2.94103,-4.33617 -4.9627,-5.36053 -1.418,-0.71851 -1.7683,-0.78187 -4.32119,-0.78187 -2.55291,0 -2.90321,0.0634 -4.3212,0.78187 -2.02168,1.02436 -4.1799,3.35557 -4.96271,5.36053 -0.9273,2.37501 -0.85219,5.26384 0.19486,7.49404 0.96586,2.05729 1.87046,3.17021 3.47304,4.27281 2.43117,1.67269 5.52172,2.18852 8.27994,1.38197 z m -4.25142,-12.14747 v -4.10105 h 0.79374 0.79375 v 3.29735 3.29737 l 2.44737,0.0761 2.44739,0.0761 0.0837,0.72763 0.0837,0.72757 h -3.32485 -3.32484 z m -8.46663,-3.01895 c 0,-0.5402 2.20732,-2.9812 3.45657,-3.82249 l 1.33737,-0.90064 -0.70403,-0.55378 c -1.62247,-1.27624 -3.85982,-0.82904 -5.10196,1.01981 -0.7227,1.07567 -0.69084,2.61366 0.0785,3.78778 0.45883,0.70025 0.93359,0.93893 0.93359,0.46932 z m 21.20885,-0.82749 c 0.65109,-1.21404 0.61375,-2.36709 -0.11194,-3.45665 -1.21313,-1.82133 -3.46548,-2.26165 -5.07859,-0.99277 l -0.70402,0.55378 1.33736,0.90064 c 1.27349,0.85762 3.45656,3.28573 3.45656,3.84453 0,0.52101 0.62385,0.0395 1.10063,-0.84953 z"
       style="fill:#ffffff;stroke-width:0.26458341" />
  </g>
</svg>
