<?xml version="1.0" encoding="UTF-8" standalone="no"?>
<svg
   xmlns:dc="http://purl.org/dc/elements/1.1/"
   xmlns:cc="http://creativecommons.org/ns#"
   xmlns:rdf="http://www.w3.org/1999/02/22-rdf-syntax-ns#"
   xmlns:svg="http://www.w3.org/2000/svg"
   xmlns="http://www.w3.org/2000/svg"
   id="svg5960"
   version="1.1"
   viewBox="0 0 26.500601 23.221996"
   height="23.221996mm"
   width="26.500601mm">
  <defs
     id="defs5954" />
  <metadata
     id="metadata5957">
    <rdf:RDF>
      <cc:Work
         rdf:about="">
        <dc:format>image/svg+xml</dc:format>
        <dc:type
           rdf:resource="http://purl.org/dc/dcmitype/StillImage" />
        <dc:title></dc:title>
      </cc:Work>
    </rdf:RDF>
  </metadata>
  <g
     transform="translate(-247.55327,-233.22829)"
     id="layer1">
    <path
       id="path3254-6"
       d="m 249.50163,256.36166 c -0.32245,-0.0654 -0.89274,-0.48305 -1.26731,-0.92821 l -0.68105,-0.80939 0.0767,-8.32474 0.0767,-8.32474 0.74236,-0.63823 c 0.67129,-0.57716 0.98154,-0.63826 3.24113,-0.63826 h 2.49876 v -1.07037 c 0,-0.79026 0.1739,-1.24425 0.66454,-1.7349 l 0.66454,-0.66453 5.44471,0.0813 c 5.35707,0.0799 5.45284,0.0913 5.95001,0.70588 0.30366,0.37537 0.5053,1.03524 0.5053,1.65365 v 1.02902 h 2.49878 c 2.25957,0 2.56983,0.0611 3.24112,0.63825 l 0.74235,0.63823 0.0768,8.34154 0.0768,8.34152 -0.78244,0.87596 -0.78242,0.87595 -11.20053,0.0355 c -6.16028,0.0196 -11.46433,-0.018 -11.78679,-0.0834 z m 22.62594,-1.72482 c 0.45335,-0.45336 0.45335,-15.58041 0,-16.03375 -0.4564,-0.4564 -22.19179,-0.4564 -22.6482,0 -0.45334,0.45334 -0.45334,15.58039 0,16.03375 0.45641,0.45641 22.1918,0.45641 22.6482,0 z m -14.49908,-3.12208 v -1.5875 h -1.71978 -1.71979 v -3.30729 -3.30729 h 1.71979 1.71978 v -1.7198 -1.71979 h 3.17499 3.17498 v 1.71979 1.7198 h 1.71978 1.71978 v 3.30729 3.30729 h -1.71978 -1.71978 v 1.5875 1.5875 h -3.17498 -3.17499 z m 4.76248,-1.5875 v -1.5875 h 1.71978 1.71978 v -1.71979 -1.71979 h -1.71978 -1.71978 v -1.7198 -1.71979 h -1.58749 -1.58749 v 1.71979 1.7198 h -1.71979 -1.71979 v 1.71979 1.71979 h 1.71979 1.71979 v 1.5875 1.5875 h 1.58749 1.58749 z m 3.43956,-14.15521 v -0.92604 h -5.02705 -5.02707 v 0.92604 0.92604 h 5.02707 5.02705 z"
       style="fill:#008542;stroke-width:0.26458341" />
  </g>
</svg>
