<?xml version="1.0" encoding="UTF-8" standalone="no"?>
<svg
   xmlns:dc="http://purl.org/dc/elements/1.1/"
   xmlns:cc="http://creativecommons.org/ns#"
   xmlns:rdf="http://www.w3.org/1999/02/22-rdf-syntax-ns#"
   xmlns:svg="http://www.w3.org/2000/svg"
   xmlns="http://www.w3.org/2000/svg"
   id="svg3696"
   version="1.1"
   viewBox="0 0 26.294943 26.327976"
   height="26.327976mm"
   width="26.294943mm">
  <defs
     id="defs3690" />
  <metadata
     id="metadata3693">
    <rdf:RDF>
      <cc:Work
         rdf:about="">
        <dc:format>image/svg+xml</dc:format>
        <dc:type
           rdf:resource="http://purl.org/dc/dcmitype/StillImage" />
        <dc:title></dc:title>
      </cc:Work>
    </rdf:RDF>
  </metadata>
  <g
     transform="translate(-221.19777,-96.359824)"
     id="layer1">
    <path
       id="path993-1"
       d="m 231.54726,122.34024 c -6.72047,-1.46225 -11.31143,-8.17164 -10.17733,-14.8735 0.97044,-5.73478 5.3765,-10.074404 11.12692,-10.959144 8.52952,-1.31232 16.1604,6.318604 14.84809,14.848164 -0.84982,5.5235 -4.90943,9.85011 -10.31791,10.99652 -2.12623,0.45069 -3.3656,0.44797 -5.47977,-0.012 z m 4.46767,-1.97691 c 0.85068,-0.74691 2.3221,-3.55396 2.67597,-5.10496 l 0.16601,-0.72761 h -4.50798 -4.50797 l 0.166,0.72761 c 0.35386,1.551 1.8253,4.35805 2.67597,5.10496 0.55326,0.48577 1.18439,0.78202 1.666,0.78202 0.48161,0 1.11275,-0.29625 1.666,-0.78202 z m -5.63473,-0.2607 c 0,-0.13693 -0.1044,-0.3135 -0.23202,-0.39237 -0.28727,-0.17754 -1.23113,-2.54373 -1.61752,-4.05502 l -0.28751,-1.12448 h -2.10645 c -1.15855,0 -2.10646,0.1012 -2.10646,0.22489 0,0.82639 2.9816,3.90263 4.76247,4.91365 1.29394,0.73458 1.58749,0.81471 1.58749,0.43333 z m 9.29721,-0.299 c 1.72924,-0.8822 4.99021,-4.18091 4.99021,-5.04798 0,-0.12369 -0.9479,-0.22489 -2.10645,-0.22489 h -2.10646 l -0.2875,1.12448 c -0.3864,1.51129 -1.33026,3.87748 -1.61753,4.05502 -0.25269,0.15617 -0.32016,0.64134 -0.0892,0.64134 0.0786,0 0.62618,-0.24659 1.21692,-0.54797 z m -11.81073,-10.29995 v -3.43958 h -2.31006 c -2.29433,0 -2.31143,0.005 -2.51352,0.7276 -0.26299,0.94042 -0.26299,4.48354 0,5.42396 0.20209,0.72266 0.21919,0.7276 2.51352,0.7276 h 2.31006 z m 11.34395,2.61276 c 0.21315,-1.06581 0.21315,-4.1597 0,-5.22552 l -0.16537,-0.82682 h -4.69633 -4.69633 l -0.16536,0.82682 c -0.0909,0.45475 -0.16537,1.63049 -0.16537,2.61276 0,0.98227 0.0744,2.15801 0.16537,2.61276 l 0.16536,0.82682 h 4.69633 4.69633 z m 6.44413,0.0992 c 0.263,-0.94042 0.263,-4.48354 0,-5.42396 -0.20209,-0.72265 -0.21919,-0.7276 -2.51353,-0.7276 h -2.31004 v 3.43958 3.43958 h 2.31004 c 2.29434,0 2.31144,-0.005 2.51353,-0.7276 z M 228.5314,103.3521 c 0.3849,-1.50156 1.00375,-3.10203 1.49228,-3.859424 0.56542,-0.87657 0.30859,-0.95822 -0.96705,-0.30743 -1.76135,0.898574 -5.02639,4.189644 -5.02639,5.066444 0,0.12369 0.94791,0.22489 2.10646,0.22489 h 2.10645 z m 10.1595,0.39687 c -0.35387,-1.551 -1.82529,-4.358054 -2.67597,-5.104954 -1.16251,-1.02071 -2.16948,-1.02071 -3.332,0 -0.85067,0.7469 -2.32211,3.553954 -2.67597,5.104954 l -0.166,0.72761 h 4.50797 4.50798 z m 5.97672,0.50272 c 0,-0.8768 -3.26505,-4.16787 -5.02639,-5.066444 -1.27564,-0.65079 -1.53247,-0.56914 -0.96705,0.30743 0.48854,0.757394 1.10737,2.357864 1.49228,3.859424 l 0.28825,1.12448 h 2.10646 c 1.15855,0 2.10645,-0.1012 2.10645,-0.22489 z"
       style="fill:#008542;stroke-width:0.26458341" />
  </g>
</svg>
