<?xml version="1.0" encoding="UTF-8" standalone="no"?>
<svg
   xmlns:dc="http://purl.org/dc/elements/1.1/"
   xmlns:cc="http://creativecommons.org/ns#"
   xmlns:rdf="http://www.w3.org/1999/02/22-rdf-syntax-ns#"
   xmlns:svg="http://www.w3.org/2000/svg"
   xmlns="http://www.w3.org/2000/svg"
   id="svg15687"
   version="1.1"
   viewBox="0 0 26.458179 24.731808"
   height="24.731808mm"
   width="26.458179mm">
  <defs
     id="defs15681" />
  <metadata
     id="metadata15684">
    <rdf:RDF>
      <cc:Work
         rdf:about="">
        <dc:format>image/svg+xml</dc:format>
        <dc:type
           rdf:resource="http://purl.org/dc/dcmitype/StillImage" />
        <dc:title></dc:title>
      </cc:Work>
    </rdf:RDF>
  </metadata>
  <g
     transform="translate(-226.40781,-221.89005)"
     id="layer1">
    <path
       id="path3222-5"
       d="m 235.67118,246.50382 c -0.90899,-0.33626 -1.59049,-1.00298 -1.59049,-1.55604 0,-0.27633 -0.40429,-0.66392 -0.99218,-0.95118 -0.57966,-0.28324 -1.1572,-0.83296 -1.38906,-1.32215 -0.21828,-0.46056 -0.75406,-0.99634 -1.19062,-1.19065 -0.43656,-0.19428 -0.99201,-0.75031 -1.23433,-1.2356 -0.24233,-0.48528 -0.83598,-1.08059 -1.31923,-1.3229 -1.81027,-0.90775 -1.93056,-2.66541 -0.29693,-4.33839 l 0.97491,-0.99841 -1.11272,-1.13379 c -0.61199,-0.6236 -1.11272,-1.24966 -1.11272,-1.39126 0,-0.33181 8.7878,-9.11521 9.11976,-9.11521 0.13782,0 0.70342,0.44217 1.25687,0.98261 l 1.00629,0.98263 3.07392,-1.01171 3.07393,-1.01172 4.46371,4.45794 c 2.45504,2.45187 4.4637,4.58177 4.4637,4.73311 0,0.15131 -0.76813,1.03645 -1.70697,1.96694 l -1.70697,1.69182 0.78094,0.88942 c 1.0277,1.17049 1.08299,2.70971 0.13151,3.6612 -0.35719,0.35719 -0.82363,0.64942 -1.03653,0.64942 -0.21291,0 -0.60528,0.44649 -0.87193,0.99219 -0.29627,0.60635 -0.81339,1.13689 -1.3297,1.36422 -0.47735,0.21021 -0.9824,0.70398 -1.16095,1.13503 -0.41259,0.99611 -1.21261,1.53565 -2.27702,1.53565 -0.58376,0 -0.94732,0.16716 -1.13782,0.5231 -0.59354,1.10906 -2.76413,1.52117 -3.67416,0.6976 -0.31036,-0.28088 -0.55164,-0.33186 -0.72937,-0.15414 -0.46928,0.46929 -1.79685,0.72144 -2.47584,0.47027 z m 1.9595,-2.0823 c 1.0703,-0.93972 1.38844,-1.70183 0.93737,-2.24536 -0.53267,-0.64183 -1.20325,-0.4368 -2.20763,0.67493 -1.07716,1.19229 -1.12818,1.37758 -0.54105,1.96471 0.57287,0.57288 0.75493,0.53324 1.81131,-0.39428 z m 3.27333,0.47932 c 0.15046,-0.1819 0.31386,-0.6759 0.36312,-1.09778 0.12294,-1.05294 0.82813,-1.46897 1.48396,-0.87546 0.69259,0.62678 1.57333,0.57571 1.78898,-0.10374 0.13118,-0.41333 -0.0478,-0.787 -0.69891,-1.45873 l -0.87528,-0.90305 0.58096,-0.58097 0.58095,-0.58097 0.90157,0.87384 c 1.6719,1.62047 2.86173,0.26699 1.23801,-1.40827 -0.81719,-0.84312 -0.81913,-0.85188 -0.29461,-1.32657 0.51297,-0.46424 0.55489,-0.45426 1.47089,0.34999 0.51858,0.45532 1.04929,0.82786 1.17935,0.82786 0.33367,0 1.06801,-0.7737 1.06801,-1.12525 0,-0.16153 -1.93005,-2.23663 -4.28899,-4.61129 -3.37998,-3.40254 -4.43674,-4.31763 -4.98605,-4.31763 -0.89289,0 -1.45718,0.65535 -1.69245,1.96556 -0.3282,1.82764 -1.83888,2.97114 -3.71679,2.81345 -0.74438,-0.0625 -1.98437,-1.48352 -1.98437,-2.27404 0,-0.36394 0.65484,-1.96742 1.4552,-3.5633 1.53095,-3.05263 1.65786,-3.43959 1.12815,-3.43959 -0.40324,0 -7.08124,6.6275 -7.08124,7.02768 0,0.54978 1.36613,1.56816 2.45984,1.83367 0.87016,0.21124 1.21612,0.47633 1.66157,1.27312 0.30943,0.55351 0.9672,1.20835 1.46172,1.45521 0.60703,0.30305 0.98136,0.72821 1.15227,1.30876 0.1668,0.56658 0.4191,0.8599 0.73963,0.8599 0.61871,0 1.78233,1.15001 1.79492,1.77392 0.006,0.29334 0.43601,0.67744 1.12447,1.0042 1.41025,0.66937 1.84457,1.92408 1.14882,3.31878 -0.34573,0.69302 -0.36767,0.92355 -0.10384,1.091 0.4603,0.29221 0.623,0.27311 0.94014,-0.1103 z m -5.39891,-3.3742 c 1.10899,-1.22751 1.13449,-1.34393 0.43342,-1.9784 -0.5059,-0.45784 -0.55518,-0.44945 -1.4733,0.25085 -1.60397,1.22341 -1.91582,2.78665 -0.55592,2.78665 0.40981,0 0.98215,-0.37984 1.5958,-1.0591 z m -2.64367,-2.35115 c 1.04823,-1.07349 1.15828,-1.74545 0.36743,-2.2435 -0.36968,-0.23278 -0.63415,-0.11409 -1.41078,0.63312 -1.32882,1.27847 -1.53141,1.71796 -1.02524,2.22414 0.61994,0.61994 0.96342,0.51803 2.06859,-0.61376 z m -2.34586,-2.68208 c 0.85091,-0.8714 0.98815,-1.14821 0.75428,-1.52135 -0.50276,-0.80211 -1.24121,-0.66405 -2.3116,0.43214 -0.77238,0.79098 -0.97379,1.1743 -0.83945,1.59756 0.28036,0.88339 1.23566,0.68077 2.39677,-0.50835 z m 19.12036,-4.03799 c 0.61238,-0.62399 1.11342,-1.25071 1.11342,-1.39274 0,-0.14205 -1.60589,-1.86084 -3.56865,-3.81958 l -3.56865,-3.56131 -3.24434,1.05963 -3.24433,1.0596 -1.32291,2.56879 c -1.07091,2.07946 -1.26711,2.6575 -1.02997,3.03453 0.16112,0.25617 0.48575,0.50374 0.72142,0.55012 0.62699,0.12345 1.76375,-1.13318 1.76375,-1.94971 0,-1.61436 1.61568,-3.02943 3.45887,-3.02943 0.75363,0 1.29516,0.42677 4.19333,3.30457 1.83037,1.8175 3.39245,3.30578 3.4713,3.30729 0.0788,0.003 0.64438,-0.50779 1.25676,-1.13176 z"
       style="fill:#008542;stroke-width:0.26458341" />
  </g>
</svg>
