<?xml version="1.0" encoding="UTF-8" standalone="no"?>
<svg
   xmlns:dc="http://purl.org/dc/elements/1.1/"
   xmlns:cc="http://creativecommons.org/ns#"
   xmlns:rdf="http://www.w3.org/1999/02/22-rdf-syntax-ns#"
   xmlns:svg="http://www.w3.org/2000/svg"
   xmlns="http://www.w3.org/2000/svg"
   id="svg17951"
   version="1.1"
   viewBox="0 0 33.3848 29.571882"
   height="29.571882mm"
   width="33.3848mm">
  <defs
     id="defs17945" />
  <metadata
     id="metadata17948">
    <rdf:RDF>
      <cc:Work
         rdf:about="">
        <dc:format>image/svg+xml</dc:format>
        <dc:type
           rdf:resource="http://purl.org/dc/dcmitype/StillImage" />
        <dc:title></dc:title>
      </cc:Work>
    </rdf:RDF>
  </metadata>
  <g
     transform="translate(-198.75403,-326.81525)"
     id="layer1">
    <path
       id="path3212-9"
       d="m 199.36154,356.31425 c -0.2643,-0.1197 -0.53726,-0.4528 -0.58417,-0.71299 -0.0208,-0.11551 -0.0293,-2.52061 -0.0189,-5.34461 0.0187,-5.0691 0.0207,-5.1367 0.15353,-5.3146 0.24116,-0.32289 0.46941,-0.4494 0.81172,-0.4494 0.3422,0 0.57037,0.12621 0.81172,0.4491 0.12286,0.1645 0.13631,0.2874 0.15482,1.4155 l 0.0203,1.23531 h 0.99297 c 0.54612,0 1.24181,-0.031 1.54596,-0.069 0.62795,-0.078 1.54639,-0.36611 2.08703,-0.6543 0.3968,-0.2116 1.25029,-0.83901 1.28155,-0.9424 0.0106,-0.035 -0.15759,-0.18111 -0.37379,-0.32471 -0.49225,-0.32699 -0.64717,-0.5648 -0.64717,-0.9943 0,-0.3156 0.033,-0.3731 1.02052,-1.77749 0.56128,-0.7983 0.99181,-1.47031 0.95674,-1.49331 -0.93176,-0.6143 -4.84876,-3.4911 -5.01055,-3.68009 -0.3207,-0.3747 -0.44848,-0.80641 -0.41112,-1.38851 0.0228,-0.3558 0.0726,-0.5451 0.19943,-0.7583 0.18548,-0.3121 6.10783,-7.7016 6.49564,-8.1049 0.40032,-0.4163 0.80977,-0.591 1.38278,-0.59 0.30818,0 0.58053,0.04 0.73538,0.1079 0.13526,0.059 4.55958,3.2223 9.8318,7.0302 10.23536,7.3923 9.7941,7.0492 9.79355,7.6125 -2.6e-4,0.33 -0.16613,0.58911 -0.57767,0.903 -0.26441,0.2017 -0.31884,0.2729 -0.25446,0.3329 0.045,0.042 0.54908,0.3951 1.12009,0.7846 0.91607,0.6248 1.05315,0.7421 1.16542,0.9958 0.15178,0.3432 0.12004,0.6618 -0.0949,0.9525 -0.0805,0.10891 -1.18159,1.48001 -2.4469,3.04701 -2.11929,2.6243 -2.32406,2.8578 -2.59854,2.9627 -0.24712,0.094 -0.34047,0.10099 -0.54725,0.039 -0.13712,-0.041 -1.12495,-0.7048 -2.19518,-1.47451 l -1.94587,-1.3998 -0.36412,0.2922 c -1.16027,0.9316 -1.30332,1.02441 -1.62795,1.05541 -0.18793,0.018 -0.37935,0 -0.47233,-0.052 -0.086,-0.045 -1.05516,-0.7242 -2.15368,-1.5083 -1.09854,-0.7841 -2.02359,-1.4245 -2.05568,-1.4229 -0.0321,0 -0.4548,0.592 -0.93936,1.3123 -0.48454,0.7206 -0.96074,1.3774 -1.0582,1.4597 -0.21883,0.1849 -0.61366,0.2584 -0.86856,0.1614 -0.10535,-0.04 -0.43525,-0.2383 -0.73312,-0.4406 l -0.54159,-0.3679 -0.29644,0.3388 c -0.69206,0.7912 -2.24128,1.9357 -3.41944,2.5265 -1.85472,0.92989 -3.64403,1.33729 -5.87274,1.33729 h -1.10195 l -0.0204,1.17011 c -0.0185,1.0619 -0.0329,1.1869 -0.15498,1.3502 -0.30962,0.4142 -0.77984,0.57159 -1.17389,0.39329 z m 3.5693,-4.87289 c 1.84394,-0.1824 3.48335,-0.75881 4.98412,-1.75211 0.58061,-0.38419 1.7938,-1.407 1.84093,-1.55199 0.0212,-0.065 -1.33751,-1.0668 -1.44749,-1.0668 -0.0226,0 -0.25385,0.1855 -0.5138,0.4122 -0.88163,0.7689 -1.72685,1.26 -2.77134,1.60979 -0.91758,0.3074 -1.57371,0.39271 -3.02401,0.39271 h -1.29664 v 1.0115 1.01149 h 0.7762 c 0.42691,0 1.08032,-0.03 1.45203,-0.067 z m 25.14816,-4.1783 c 0.89731,-1.1136 1.63798,-2.04591 1.64592,-2.07141 0.008,-0.025 -0.35943,-0.3002 -0.81636,-0.61049 l -0.83078,-0.56391 -2.10717,1.68571 c -1.15895,0.92739 -2.11079,1.70939 -2.11522,1.738 -0.009,0.061 2.42997,1.84199 2.52686,1.8451 0.0359,0 0.79943,-0.90911 1.69675,-2.023 z m -3.78506,-2.69961 c 2.00999,-1.6066 3.6634,-2.9451 3.67422,-2.9744 0.0108,-0.029 -3.96819,-2.9335 -8.84225,-6.4539 l -8.86194,-6.4005 -0.13941,0.1456 c -0.36763,0.3844 -6.03482,7.5012 -6.01665,7.5556 0.0114,0.034 3.61662,2.63081 8.01149,5.77011 l 7.99065,5.70789 0.26468,-0.21469 c 0.14557,-0.11811 1.90922,-1.52921 3.91921,-3.13571 z m -1.37368,-3.06659 c -0.66182,-0.28831 -0.7953,-1.1243 -0.25522,-1.5984 0.4157,-0.36511 0.95953,-0.32661 1.32875,0.094 0.34763,0.396 0.32934,0.9316 -0.044,1.2877 -0.31735,0.3027 -0.66446,0.3759 -1.02956,0.2168 z m -9.56132,5.28239 0.59207,-0.8763 -0.21245,-0.1593 c -0.17731,-0.1329 -3.67569,-2.6322 -4.33072,-3.0939 l -0.2027,-0.1429 -0.39517,0.56881 c -0.21733,0.31269 -0.51542,0.73549 -0.66241,0.93949 l -0.26726,0.37091 2.39535,1.66429 c 1.31744,0.9155 2.41691,1.6512 2.44328,1.6349 0.0264,-0.016 0.31437,-0.424 0.64001,-0.906 z"
       style="fill:#008542;stroke-width:0.06525993" />
  </g>
</svg>
