<?xml version="1.0" encoding="UTF-8" standalone="no"?>
<svg
   xmlns:dc="http://purl.org/dc/elements/1.1/"
   xmlns:cc="http://creativecommons.org/ns#"
   xmlns:rdf="http://www.w3.org/1999/02/22-rdf-syntax-ns#"
   xmlns:svg="http://www.w3.org/2000/svg"
   xmlns="http://www.w3.org/2000/svg"
   id="svg18517"
   version="1.1"
   viewBox="0 0 26.342918 26.388027"
   height="26.388027mm"
   width="26.342918mm">
  <defs
     id="defs18511" />
  <metadata
     id="metadata18514">
    <rdf:RDF>
      <cc:Work
         rdf:about="">
        <dc:format>image/svg+xml</dc:format>
        <dc:type
           rdf:resource="http://purl.org/dc/dcmitype/StillImage" />
        <dc:title></dc:title>
      </cc:Work>
    </rdf:RDF>
  </metadata>
  <g
     transform="translate(-180.35235,-373.76432)"
     id="layer1">
    <path
       id="path3214-8"
       d="m 197.82569,399.89928 c -9.06345,-1.7907 -18.92093,-13.7836 -17.29633,-21.0431 0.27031,-1.2078 0.60272,-1.7562 1.91565,-3.1596 2.50797,-2.6811 3.48344,-2.6124 6.50528,0.4587 2.47109,2.5114 2.61529,3.9229 0.60165,5.8892 -0.58675,0.5729 -1.06683,1.284 -1.06683,1.5802 0,0.7393 7.6048,8.3499 8.34347,8.3499 0.29971,0 1.01371,-0.48 1.58665,-1.0668 1.96627,-2.0136 3.37785,-1.8693 5.88915,0.6017 3.06547,3.0163 3.13782,3.9992 0.47758,6.4878 -2.20709,2.0645 -3.85424,2.5149 -6.95627,1.902 z m 4.09545,-1.7195 c 1.21793,-0.5068 3.23262,-2.4399 3.23262,-3.1016 0,-0.6212 -3.43894,-4.1619 -4.04214,-4.1619 -0.24758,0 -1.10751,0.5954 -1.91094,1.323 -1.53351,1.3888 -2.44266,1.6448 -3.6554,1.0297 -0.82712,-0.4195 -7.8166,-7.373 -8.26895,-8.2265 -0.70651,-1.3329 -0.49024,-2.1994 0.9442,-3.7835 0.7276,-0.8034 1.32291,-1.6634 1.32291,-1.9109 0,-0.6137 -3.54593,-4.0421 -4.18061,-4.0421 -0.59436,0 -2.851,2.3165 -3.23146,3.3171 -0.60302,1.5862 -0.0753,4.7495 1.22381,7.3367 2.2004,4.3821 6.95332,9.0691 11.33222,11.1754 3.04583,1.465 5.40516,1.8057 7.23374,1.0446 z"
       style="fill:#008542;stroke-width:0.26458341" />
  </g>
</svg>
