<?xml version="1.0" encoding="UTF-8" standalone="no"?>
<svg
   xmlns:dc="http://purl.org/dc/elements/1.1/"
   xmlns:cc="http://creativecommons.org/ns#"
   xmlns:rdf="http://www.w3.org/1999/02/22-rdf-syntax-ns#"
   xmlns:svg="http://www.w3.org/2000/svg"
   xmlns="http://www.w3.org/2000/svg"
   id="svg7092"
   version="1.1"
   viewBox="0 0 26.31027 26.387161"
   height="26.387161mm"
   width="26.31027mm">
  <defs
     id="defs7086" />
  <metadata
     id="metadata7089">
    <rdf:RDF>
      <cc:Work
         rdf:about="">
        <dc:format>image/svg+xml</dc:format>
        <dc:type
           rdf:resource="http://purl.org/dc/dcmitype/StillImage" />
        <dc:title></dc:title>
      </cc:Work>
    </rdf:RDF>
  </metadata>
  <g
     transform="translate(-209.85082,-57.776657)"
     id="layer1">
    <path
       id="path3250-2"
       d="m 224.3249,83.842827 c -3.16413,-0.88805 -6.42373,-3.03758 -9.35114,-6.16651 -3.38493,-3.61797 -5.09358,-7.07909 -5.12165,-10.37466 -0.0145,-1.70588 0.0852,-2.15802 0.71042,-3.22167 1.04994,-1.78605 2.45357,-2.86375 3.72987,-2.86375 0.91639,0 1.23647,0.20185 2.91627,1.83899 1.77705,1.73193 1.88689,1.90701 1.88689,3.00749 0,1.00827 -0.15529,1.33702 -1.13236,2.39702 -0.89127,0.96692 -1.07888,1.32649 -0.88117,1.68884 0.30281,0.55499 6.74688,6.94266 7.00395,6.94266 0.0994,0 0.72971,-0.50601 1.40066,-1.12448 1.05127,-0.96903 1.38145,-1.12448 2.38843,-1.12448 1.10049,0 1.27557,0.10983 3.00749,1.88691 1.64488,1.68777 1.83896,1.99689 1.83896,2.92893 0,0.81436 -0.20854,1.28569 -0.95446,2.15713 -1.78841,2.08936 -4.5456,2.84056 -7.44216,2.02758 z m 4.23796,-1.56067 c 1.3513,-0.57984 2.67032,-2.11403 2.47764,-2.88177 -0.18664,-0.74363 -2.60933,-3.1029 -3.18631,-3.1029 -0.21566,0 -0.94238,0.47625 -1.61492,1.05834 -0.94869,0.8211 -1.44086,1.05833 -2.19557,1.05833 -0.89841,0 -1.26134,-0.28803 -4.74639,-3.7669 -3.49722,-3.49099 -3.77361,-3.83863 -3.77361,-4.74639 0,-0.76261 0.2344,-1.25034 1.05834,-2.20234 0.58208,-0.67254 1.05832,-1.39925 1.05832,-1.61493 0,-0.57698 -2.35925,-2.99969 -3.10287,-3.18633 -0.49139,-0.12332 -0.85651,0.0463 -1.57789,0.7329 -1.78372,1.69783 -2.06777,3.38833 -1.06402,6.33261 0.91298,2.67809 2.22104,4.64185 4.82934,7.25017 2.60829,2.60829 4.57203,3.91636 7.25011,4.82936 2.00627,0.68397 3.38485,0.75605 4.58783,0.23985 z m 0.98368,-15.37738 v -2.51354 h -2.51352 -2.51353 v -0.79375 -0.79375 h 2.51353 2.51352 v -2.51354 -2.51354 h 0.79375 0.79374 v 2.51354 2.51354 h 2.51353 2.51353 v 0.79375 0.79375 h -2.51353 -2.51353 v 2.51354 2.51355 h -0.79374 -0.79375 z"
       style="fill:#008542;stroke-width:0.26458341" />
  </g>
</svg>
