<?xml version="1.0" encoding="UTF-8" standalone="no"?>
<svg
   xmlns:dc="http://purl.org/dc/elements/1.1/"
   xmlns:cc="http://creativecommons.org/ns#"
   xmlns:rdf="http://www.w3.org/1999/02/22-rdf-syntax-ns#"
   xmlns:svg="http://www.w3.org/2000/svg"
   xmlns="http://www.w3.org/2000/svg"
   id="svg4262"
   version="1.1"
   viewBox="0 0 24.602081 24.473961"
   height="24.473961mm"
   width="24.602081mm">
  <defs
     id="defs4256" />
  <metadata
     id="metadata4259">
    <rdf:RDF>
      <cc:Work
         rdf:about="">
        <dc:format>image/svg+xml</dc:format>
        <dc:type
           rdf:resource="http://purl.org/dc/dcmitype/StillImage" />
        <dc:title></dc:title>
      </cc:Work>
    </rdf:RDF>
  </metadata>
  <g
     transform="translate(-329.38943,-143.39992)"
     id="layer1">
    <path
       id="path995-9"
       d="m 340.95686,158.74575 v -9.12812 h 0.79374 0.79375 v 9.12812 9.12813 h -0.79375 -0.79374 z m -8.88221,1.12448 c -1.11862,-1.3227 -2.24973,-3.97139 -2.56454,-6.0053 -0.49909,-3.22435 0.57963,-7.05553 2.6858,-9.53897 l 0.78536,-0.92604 0.54813,0.53642 0.54812,0.53641 -1.03593,1.37871 c -1.42735,1.89964 -1.99876,3.6949 -1.99876,6.27971 0,2.54414 0.53556,4.26077 1.96668,6.30377 0.964,1.37618 0.99639,1.48442 0.56175,1.87777 -0.61823,0.55949 -0.6596,0.54726 -1.49661,-0.44248 z m 17.77579,0.36399 c -0.42436,-0.46893 -0.41413,-0.5373 0.18808,-1.25677 1.68087,-2.00815 2.75746,-5.57908 2.40726,-7.98455 -0.26975,-1.85291 -1.09984,-3.88835 -2.14315,-5.25516 l -0.92808,-1.21587 0.57072,-0.56097 0.57073,-0.56098 0.66829,0.79375 c 1.12359,1.33455 2.44499,4.37801 2.69959,6.21771 0.28184,2.03663 0.003,4.40165 -0.75211,6.38496 -0.54717,1.43666 -2.20494,3.93379 -2.61154,3.93379 -0.12155,0 -0.42296,-0.22316 -0.66979,-0.49591 z m -14.43797,-4.33151 c -0.89595,-1.56874 -1.21114,-3.13551 -0.97596,-4.85135 0.18262,-1.33234 0.92887,-2.9333 1.68677,-3.61869 0.49206,-0.44498 0.53523,-0.44211 0.9952,0.0662 0.44389,0.49049 0.44796,0.56763 0.053,1.00401 -1.60834,1.77719 -1.60834,5.47949 0,7.25668 0.39489,0.43635 0.39096,0.51339 -0.0511,1.00187 -0.26339,0.29104 -0.57709,0.52916 -0.69711,0.52916 -0.12003,0 -0.57491,-0.62452 -1.01084,-1.38783 z m 11.00121,0.89501 c -0.47211,-0.52167 -0.47123,-0.55835 0.0308,-1.2789 1.33795,-1.92038 1.44874,-3.86572 0.34478,-6.05433 -0.72564,-1.43861 -0.75121,-1.5848 -0.35392,-2.0238 0.39397,-0.43534 0.46572,-0.43924 0.89727,-0.0487 0.70756,0.64033 1.51383,2.53125 1.71006,4.01052 0.22229,1.67569 -0.42414,4.00859 -1.41938,5.12248 -0.72289,0.80905 -0.72402,0.8093 -1.20961,0.27272 z"
       style="fill:#008542;stroke-width:0.26458341" />
  </g>
</svg>
