<?xml version="1.0" encoding="UTF-8" standalone="no"?>
<svg
   xmlns:dc="http://purl.org/dc/elements/1.1/"
   xmlns:cc="http://creativecommons.org/ns#"
   xmlns:rdf="http://www.w3.org/1999/02/22-rdf-syntax-ns#"
   xmlns:svg="http://www.w3.org/2000/svg"
   xmlns="http://www.w3.org/2000/svg"
   id="svg9452"
   version="1.1"
   viewBox="0 0 17.957394 23.507179"
   height="23.507179mm"
   width="17.957394mm">
  <defs
     id="defs9446" />
  <metadata
     id="metadata9449">
    <rdf:RDF>
      <cc:Work
         rdf:about="">
        <dc:format>image/svg+xml</dc:format>
        <dc:type
           rdf:resource="http://purl.org/dc/dcmitype/StillImage" />
        <dc:title></dc:title>
      </cc:Work>
    </rdf:RDF>
  </metadata>
  <g
     transform="translate(-159.59869,-103.06189)"
     id="layer1">
    <path
       id="path3244-4"
       d="m 162.04626,126.23829 c 0.0669,-0.1819 1.21962,-3.63167 2.56159,-7.66615 2.3029,-6.92335 2.41655,-7.3688 2.02333,-7.93022 -0.49185,-0.7022 -0.53445,-2.28608 -0.0775,-2.88126 0.94775,-1.23441 2.56168,-1.35027 3.64994,-0.26202 0.89144,0.89146 0.99049,1.82015 0.31591,2.96215 -0.45471,0.76975 -0.44273,0.81875 1.98436,8.11572 1.34302,4.03773 2.44185,7.49572 2.44185,7.68448 0,0.21548 -0.25922,0.31202 -0.69667,0.25945 -0.58903,-0.0708 -0.7833,-0.32896 -1.25752,-1.67122 l -0.56086,-1.5875 -3.83567,-0.0728 -3.83568,-0.0728 -0.61915,1.72646 c -0.57639,1.60727 -0.67427,1.72649 -1.41736,1.72649 -0.52706,0 -0.7569,-0.11234 -0.67658,-0.33073 z m 9.704,-5.02709 c -0.0113,-0.1819 -0.22991,-0.92604 -0.48586,-1.65364 l -0.46535,-1.32292 h -2.18765 -2.18765 l -0.62166,1.65365 -0.62166,1.65364 h 3.29517 c 2.47068,0 3.29004,-0.0827 3.27466,-0.33073 z m -1.63582,-5.02708 c -0.069,-0.1819 -0.40282,-1.19393 -0.74184,-2.24896 -0.33902,-1.05502 -0.69141,-1.91823 -0.7831,-1.91823 -0.15901,0 -1.59075,3.88544 -1.5843,4.29948 0.002,0.10914 0.7302,0.19844 1.61889,0.19844 1.18316,0 1.58221,-0.0885 1.49035,-0.33073 z m -0.8572,-7.0776 c 0,-0.48491 -0.15921,-0.68408 -0.59649,-0.74616 -0.65011,-0.0923 -1.01935,0.47506 -0.75591,1.16158 0.0956,0.24918 0.39812,0.38153 0.75591,0.33073 0.43728,-0.0621 0.59649,-0.26125 0.59649,-0.74615 z m -8.05346,5.18303 c -1.15961,-1.68543 -1.60356,-3.10994 -1.60509,-5.15015 -0.002,-2.1119 0.61516,-3.97041 1.75428,-5.28645 0.83027,-0.95925 0.83738,-0.96158 1.39695,-0.45641 0.55973,0.5053 0.55993,0.51041 0.0421,1.06164 -0.96996,1.03246 -1.66431,3.03099 -1.65141,4.75316 0.0133,1.78025 0.47433,3.12341 1.48376,4.32303 l 0.66271,0.78761 -0.62592,0.58801 -0.62593,0.58804 z m 13.24079,0.5353 c -0.53539,-0.56991 -0.54409,-0.63722 -0.12699,-0.98227 0.24629,-0.20375 0.72534,-0.96575 1.06456,-1.69336 1.06685,-2.28832 0.72046,-5.3948 -0.82792,-7.42484 -0.63949,-0.83844 -0.64072,-0.85114 -0.1271,-1.31596 0.4968,-0.44958 0.54095,-0.44915 1.04888,0.0106 0.29162,0.26394 0.84588,1.12503 1.23166,1.91354 1.41768,2.89764 1.02851,6.68549 -0.94157,9.16453 l -0.74675,0.93965 z m -10.45467,-2.2519 c -1.50703,-1.66526 -1.54282,-4.63404 -0.0812,-6.73142 l 0.52368,-0.75142 0.54653,0.54655 0.54653,0.54653 -0.5815,1.03465 c -0.72879,1.29672 -0.73887,2.52894 -0.0315,3.84876 0.53953,1.00666 0.54047,1.03574 0.0495,1.52678 -0.49102,0.49101 -0.50954,0.49064 -0.97205,-0.0204 z m 8.11187,-0.078 -0.55471,-0.55473 0.57486,-0.77756 c 0.79056,-1.06928 0.78816,-3.04625 -0.005,-4.11903 l -0.57985,-0.7843 0.62138,-0.58378 0.62138,-0.58375 0.7285,1.24309 c 0.94841,1.61835 1.01545,3.71486 0.17054,5.33337 -0.73836,1.4144 -0.90306,1.50071 -1.5771,0.82669 z"
       style="fill:#008542;stroke-width:0.26458341" />
  </g>
</svg>
