<?xml version="1.0" encoding="UTF-8" standalone="no"?>
<svg
   xmlns:dc="http://purl.org/dc/elements/1.1/"
   xmlns:cc="http://creativecommons.org/ns#"
   xmlns:rdf="http://www.w3.org/1999/02/22-rdf-syntax-ns#"
   xmlns:svg="http://www.w3.org/2000/svg"
   xmlns="http://www.w3.org/2000/svg"
   id="svg16253"
   version="1.1"
   viewBox="0 0 24.726379 26.45833"
   height="26.45833mm"
   width="24.726379mm">
  <defs
     id="defs16247" />
  <metadata
     id="metadata16250">
    <rdf:RDF>
      <cc:Work
         rdf:about="">
        <dc:format>image/svg+xml</dc:format>
        <dc:type
           rdf:resource="http://purl.org/dc/dcmitype/StillImage" />
        <dc:title></dc:title>
      </cc:Work>
    </rdf:RDF>
  </metadata>
  <g
     transform="translate(-186.45229,-159.03869)"
     id="layer1">
    <path
       id="path3220-1"
       d="m 186.45229,172.26786 v -13.22917 h 7.21399 7.21399 l 3.17085,3.20484 c 2.02756,2.04931 3.04235,3.25282 2.81447,3.33788 -0.196,0.0732 -0.74749,0.47646 -1.22554,0.8962 -0.82915,0.728 -0.98639,0.76316 -3.41392,0.76316 h -2.54475 v -3.30729 -3.30729 h -5.82081 -5.82079 v 11.64167 11.64166 h 9.12808 9.12807 v -2.46404 c 0,-2.39246 0.0231,-2.48615 0.79374,-3.2245 l 0.79375,-0.76046 v 4.01825 4.01825 h -10.71556 -10.71557 z m 17.06553,-8.46667 c -1.01083,-1.01865 -1.93038,-1.85208 -2.04342,-1.85208 -0.11304,0 -0.20553,0.83343 -0.20553,1.85208 v 1.85208 h 2.04341 2.04342 z m -13.62597,17.4625 v -0.79375 h 3.53571 3.5357 l 0.33123,-1.56086 c 0.32882,-1.5495 0.36714,-1.59657 5.27749,-6.48229 4.94103,-4.91625 5.17233,-5.08481 6.76664,-4.93149 0.96887,0.0932 1.84005,1.22695 1.84005,2.39472 0,1.02518 -0.17191,1.2338 -4.99637,6.06332 l -4.99638,5.00158 -2.19789,0.55126 c -1.6667,0.41802 -3.03151,0.55126 -5.64704,0.55126 h -3.44914 z m 15.14731,-6.30534 c 2.58299,-2.56815 4.69632,-4.87476 4.69632,-5.12582 0,-0.25107 -0.25451,-0.5927 -0.56558,-0.75917 -0.51795,-0.27721 -0.96377,0.0955 -5.2913,4.42301 -3.31866,3.31869 -4.80064,4.987 -4.97735,5.60319 l -0.25164,0.87741 0.84661,-0.17463 c 0.63373,-0.13073 2.02752,-1.34876 5.54294,-4.84399 z"
       style="fill:#ffffff;stroke-width:0.26458341" />
  </g>
</svg>
