<?xml version="1.0" encoding="UTF-8" standalone="no"?>
<svg
   xmlns:dc="http://purl.org/dc/elements/1.1/"
   xmlns:cc="http://creativecommons.org/ns#"
   xmlns:rdf="http://www.w3.org/1999/02/22-rdf-syntax-ns#"
   xmlns:svg="http://www.w3.org/2000/svg"
   xmlns="http://www.w3.org/2000/svg"
   id="svg4828"
   version="1.1"
   viewBox="0 0 26.458179 24.779051"
   height="24.779051mm"
   width="26.458179mm">
  <defs
     id="defs4822" />
  <metadata
     id="metadata4825">
    <rdf:RDF>
      <cc:Work
         rdf:about="">
        <dc:format>image/svg+xml</dc:format>
        <dc:type
           rdf:resource="http://purl.org/dc/dcmitype/StillImage" />
        <dc:title></dc:title>
      </cc:Work>
    </rdf:RDF>
  </metadata>
  <g
     transform="translate(-276.30067,-181.80095)"
     id="layer1">
    <path
       id="path3258-1"
       d="m 299.58387,205.99071 c 0,-0.44894 0.28204,-0.93369 0.79374,-1.36427 0.95334,-0.80217 1.01615,-1.6426 0.18139,-2.42682 -0.52831,-0.49633 -0.91715,-0.57529 -2.83319,-0.57529 h -2.22084 l 1.12127,1.14251 1.12128,1.1425 -0.5491,0.49693 c -0.54458,0.49284 -0.56587,0.48017 -2.58314,-1.53712 l -2.03405,-2.03406 1.97299,-1.98626 c 1.96932,-1.98256 1.97398,-1.98528 2.49921,-1.46004 0.52524,0.52524 0.52434,0.52815 -0.48386,1.56064 l -1.01009,1.03443 2.5226,0.0926 c 2.90869,0.10681 3.75793,0.53246 4.39336,2.20203 0.66017,1.73454 -0.39899,3.6887 -2.29625,4.23663 -0.51012,0.14732 -0.59532,0.0723 -0.59532,-0.52444 z m -22.75403,-4.89554 c -0.50772,-0.50772 -0.52917,-0.88195 -0.52917,-9.23111 0,-8.17015 0.0309,-8.74011 0.50525,-9.32656 0.49265,-0.60905 0.6262,-0.62676 5.35778,-0.71042 5.92,-0.10467 6.51423,0.0323 7.7794,1.79336 0.50708,0.7058 1.1075,1.35448 1.33428,1.4415 0.22677,0.087 2.66475,0.15823 5.41773,0.15823 4.65264,0 5.04272,0.0373 5.53458,0.52916 0.49849,0.49849 0.52916,0.88195 0.52916,6.61459 v 6.08541 h -0.79375 -0.79374 v -5.82083 -5.82083 l -5.22549,0.001 -5.22549,0.001 -1.19061,0.79148 -1.19063,0.79148 -5.22549,0.001 -5.22549,0.001 v 5.82081 5.82083 h 5.8208 5.82081 v 0.79375 0.79375 h -6.08539 c -5.73261,0 -6.11605,-0.0307 -6.61454,-0.52916 z m 11.93492,-14.83714 0.77189,-0.54963 -0.57363,-0.83943 c -1.02758,-1.50372 -1.01582,-1.50089 -6.23066,-1.50089 h -4.8442 v 1.7198 1.71979 h 5.05236 c 4.69097,0 5.10757,-0.0393 5.82424,-0.54964 z"
       style="fill:#ffffff;stroke-width:0.26458341" />
  </g>
</svg>
