<?xml version="1.0" encoding="UTF-8" standalone="no"?>
<svg
   xmlns:dc="http://purl.org/dc/elements/1.1/"
   xmlns:cc="http://creativecommons.org/ns#"
   xmlns:rdf="http://www.w3.org/1999/02/22-rdf-syntax-ns#"
   xmlns:svg="http://www.w3.org/2000/svg"
   xmlns="http://www.w3.org/2000/svg"
   id="svg16819"
   version="1.1"
   viewBox="0 0 22.507555 25.66464"
   height="25.66464mm"
   width="22.507555mm">
  <defs
     id="defs16813" />
  <metadata
     id="metadata16816">
    <rdf:RDF>
      <cc:Work
         rdf:about="">
        <dc:format>image/svg+xml</dc:format>
        <dc:type
           rdf:resource="http://purl.org/dc/dcmitype/StillImage" />
        <dc:title></dc:title>
      </cc:Work>
    </rdf:RDF>
  </metadata>
  <g
     transform="translate(-198.14503,-216.88792)"
     id="layer1">
    <path
       id="path3218-9"
       d="m 207.99114,241.77326 c 0,-0.7419 0.0602,-0.7831 1.25676,-0.8599 1.19531,-0.077 1.25676,-0.1185 1.25676,-0.8566 0,-0.75654 -0.0478,-0.78414 -1.89806,-1.09595 -4.77094,-0.80388 -8.36503,-3.83328 -9.88136,-8.32884 -1.14258,-3.38747 -0.56018,-7.78481 1.41718,-10.70026 0.82406,-1.21504 0.86555,-1.36908 0.51336,-1.90658 -0.42352,-0.64643 -0.2637,-1.13721 0.37033,-1.13721 0.22662,0 1.11746,0.6531 1.97963,1.45132 l 1.5676,1.45134 1.37816,-0.77536 c 4.78362,-2.69121 10.96012,-0.44138 12.89891,4.69853 0.85125,2.25671 0.65605,5.20369 -0.48411,7.30879 l -0.83805,1.54729 0.7631,0.95649 c 0.4197,0.52599 1.13134,1.30609 1.58141,1.7335 1.36631,1.29749 0.80032,2.55511 -0.64004,1.42211 l -0.69835,-0.5493 -0.7157,0.52908 c -1.15223,0.85191 -2.84567,1.64201 -4.33765,2.0238 -1.332,0.34092 -1.38887,0.39222 -1.38887,1.25135 0,0.8811 0.0208,0.8972 1.25676,0.9765 1.19657,0.077 1.25677,0.118 1.25677,0.8599 v 0.7793 h -3.30728 -3.30726 z m 5.22919,-4.62485 c 1.41246,-0.37599 3.59204,-1.5078 3.91731,-2.03409 0.0979,-0.1584 -0.0638,-0.53001 -0.35938,-0.8256 l -0.53745,-0.5374 -0.76668,0.54589 c -2.17353,1.54771 -5.47704,1.95641 -8.21365,1.01611 -1.82751,-0.62791 -4.05616,-2.66811 -4.98221,-4.56086 -1.34386,-2.74675 -1.12992,-6.17072 0.55204,-8.83513 l 0.63055,-0.99885 -0.60055,-0.56417 c -0.57197,-0.53735 -0.62054,-0.54198 -1.02123,-0.0971 -0.76363,0.84791 -1.73405,3.08695 -2.05742,4.74702 -0.39462,2.02595 -0.0169,4.5602 0.96986,6.50759 0.77219,1.52392 2.67128,3.6467 3.99316,4.46371 2.30616,1.42531 5.7416,1.90071 8.47565,1.17289 z m -1.29355,-2.96338 c 0.45476,-0.091 0.82561,-0.23971 0.82412,-0.3307 -0.001,-0.091 -0.6428,-0.4826 -1.42513,-0.8704 l -1.42241,-0.70512 -0.85171,0.87871 c -0.75493,0.77891 -0.79593,0.8931 -0.36081,1.0051 0.75668,0.19481 2.31989,0.20569 3.23594,0.022 z m -4.27897,-1.73861 c 0.47986,-0.46511 0.87248,-0.92429 0.87248,-1.02049 0,-0.0962 -0.59148,-0.7664 -1.31441,-1.48934 l -1.31442,-1.31443 -0.95955,0.98269 c -0.81495,0.83458 -0.91618,1.06373 -0.67173,1.52046 0.26701,0.4989 2.10635,2.1668 2.38958,2.1668 0.0691,0 0.51818,-0.3806 0.99805,-0.84569 z m 7.96328,-0.26561 c 0.17462,-0.1746 0.31488,-0.7402 0.31169,-1.25674 -0.006,-0.98269 -0.8678,-3.18823 -1.24566,-3.18823 -0.12046,0 -0.98148,0.7693 -1.91337,1.70955 l -1.69435,1.70958 1.43741,0.66905 c 1.56923,0.73049 2.61087,0.85021 3.10428,0.35679 z m -3.70934,-3.9896 1.91301,-1.92585 -1.39793,-1.38059 -1.39793,-1.38057 -1.96861,1.98186 -1.96861,1.98183 1.30467,1.32459 c 0.71757,0.72853 1.37165,1.32461 1.45353,1.32461 0.0819,0 1.00971,-0.86665 2.06187,-1.92588 z m 5.87486,-1.44756 c 0.002,-1.05503 -0.0927,-1.91823 -0.21103,-1.91823 -0.1183,0 -0.53776,0.33681 -0.93214,0.74845 l -0.71705,0.74846 0.70019,1.52945 c 0.86005,1.87859 1.15432,1.59747 1.16003,-1.10813 z m -13.64599,-1.01772 c -0.68716,-1.40452 -0.76736,-1.48085 -0.9328,-0.88784 -0.24442,0.87614 -0.27903,3.55801 -0.0489,3.78817 0.10168,0.10168 0.53331,-0.16356 0.95917,-0.58943 l 0.77429,-0.77428 z m 3.85294,-1.55432 1.6969,-1.71215 -1.30768,-0.58459 c -1.50751,-0.67392 -2.94849,-0.76558 -3.32073,-0.21122 -0.14169,0.211 -0.20679,0.81325 -0.14468,1.33834 0.11874,1.00362 0.90299,2.88176 1.20333,2.88176 0.0968,0 0.93955,-0.77046 1.87286,-1.71214 z m 7.91936,0.0188 c 1.06723,-1.10111 0.9662,-1.6175 -0.5745,-2.93629 l -1.09834,-0.94017 -1.01711,1.01714 -1.01712,1.01714 1.27106,1.3335 c 0.69908,0.73345 1.337,1.35035 1.41759,1.37088 0.0806,0.0204 0.53888,-0.36745 1.01842,-0.8622 z m -4.25937,-4.72289 c -0.85245,-0.19402 -3.01593,-0.0299 -3.49495,0.26517 -0.13167,0.0811 0.40411,0.47638 1.19063,0.87839 l 1.43001,0.73093 0.87431,-0.83775 0.87431,-0.83772 z"
       style="fill:#ffffff;stroke-width:0.26458341" />
  </g>
</svg>
