<?xml version="1.0" encoding="UTF-8" standalone="no"?>
<svg
   xmlns:dc="http://purl.org/dc/elements/1.1/"
   xmlns:cc="http://creativecommons.org/ns#"
   xmlns:rdf="http://www.w3.org/1999/02/22-rdf-syntax-ns#"
   xmlns:svg="http://www.w3.org/2000/svg"
   xmlns="http://www.w3.org/2000/svg"
   id="svg1421"
   version="1.1"
   viewBox="0 0 24.9058 26.458344"
   height="26.458344mm"
   width="24.9058mm">
  <defs
     id="defs1415" />
  <metadata
     id="metadata1418">
    <rdf:RDF>
      <cc:Work
         rdf:about="">
        <dc:format>image/svg+xml</dc:format>
        <dc:type
           rdf:resource="http://purl.org/dc/dcmitype/StillImage" />
        <dc:title></dc:title>
      </cc:Work>
    </rdf:RDF>
  </metadata>
  <g
     transform="translate(-213.57686,48.092267)"
     id="layer1">
    <path
       id="path985-9"
       d="m 215.16429,-22.427682 c 0,-0.767049 0.041,-0.79375 1.21857,-0.79375 0.92084,0 1.4149,-0.165194 2.02208,-0.676114 1.2274,-1.032793 3.27935,-1.983676 5.0677,-2.34839 l 1.61348,-0.329051 0.0696,-9.17114 0.0696,-9.171139 h -2.91383 c -1.60261,0 -2.9139,0.0893 -2.91399,0.198437 -9e-5,0.109141 0.62498,2.013136 1.38905,4.2311 1.23708,3.591039 1.45441,4.032907 1.98453,4.034896 1.14845,0.0043 0.61933,2.05133 -0.90242,3.491131 -2.1834,2.065846 -5.71584,1.615015 -7.48417,-0.955175 -1.03904,-1.510198 -1.07666,-2.466673 -0.10158,-2.582294 0.65856,-0.07809 0.79203,-0.341299 1.98436,-3.913235 0.70308,-2.106233 1.27832,-3.981468 1.27832,-4.167188 0,-0.243826 -0.5515,-0.337672 -1.98436,-0.337672 h -1.98437 v -0.793751 -0.79375 h 5.8208 5.82081 v -0.79375 c 0,-0.705555 0.0882,-0.79375 0.79374,-0.79375 0.7044,0 0.79375,0.08877 0.79375,0.78859 v 0.78859 l 5.75466,0.07131 5.75464,0.07131 0.0837,0.727604 0.0837,0.727605 h -2.16254 c -1.61946,0 -2.13153,0.08305 -2.03911,0.330729 0.0679,0.181901 0.70261,2.086901 1.41053,4.233333 1.2469,3.780663 1.31007,3.902605 2.02155,3.902605 0.61026,0 0.73442,0.113725 0.73442,0.672625 0,0.369944 -0.11491,0.816429 -0.25537,0.992188 -2.04588,2.56005 -2.87406,3.097687 -4.77168,3.097687 -1.89762,0 -2.72579,-0.537637 -4.77167,-3.097687 -0.14046,-0.175759 -0.25538,-0.614335 -0.25538,-0.974614 0,-0.517916 0.15232,-0.672578 0.7276,-0.738771 0.68546,-0.07887 0.80696,-0.313555 2.09811,-4.05247 0.75379,-2.182813 1.37885,-4.058047 1.38905,-4.167188 0.0102,-0.109141 -1.29114,-0.198437 -2.89186,-0.198437 h -2.91039 v 9.223563 9.223563 l 1.34332,0.159098 c 1.58675,0.187928 3.95397,1.214836 5.32185,2.308637 0.72059,0.5762 1.25823,0.780973 2.05051,0.780973 1.01677,0 1.07384,0.04219 1.07384,0.79375 v 0.793751 h -10.71556 -10.71557 z m 16.28237,-1.041205 c -0.0841,-0.1361 -0.83528,-0.511302 -1.66925,-0.833782 -1.1391,-0.440467 -2.07579,-0.586327 -3.76526,-0.586327 -1.68948,0 -2.62616,0.14586 -3.76527,0.586327 -0.83397,0.32248 -1.58513,0.697682 -1.66925,0.833782 -0.0931,0.150567 2.03476,0.247455 5.43452,0.247455 3.39975,0 5.52757,-0.09689 5.43451,-0.247455 z m -10.96543,-10.353895 c 0.42265,-0.300951 0.76845,-0.658139 0.76845,-0.793751 0,-0.137556 -1.25749,-0.243137 -2.84426,-0.238811 l -2.84425,0.0078 0.86406,0.785994 c 1.08642,0.988258 2.8571,1.092513 4.056,0.238811 z m 15.11784,-0.238812 0.86406,-0.785994 h -3.04269 -3.04269 l 0.86406,0.785994 c 0.71479,0.650198 1.09118,0.785995 2.17863,0.785995 1.08744,0 1.46385,-0.135797 2.17863,-0.785995 z m -15.14314,-2.471664 c 0,-0.106996 -1.54011,-4.68835 -1.75111,-5.209008 -0.1349,-0.33288 -1.95304,4.399116 -1.95304,5.083095 0,0.114714 0.83344,0.208572 1.85207,0.208572 1.01865,0 1.85208,-0.0372 1.85208,-0.08266 z m 14.81658,-0.102198 c 0,-0.409831 -1.71076,-5.371394 -1.85207,-5.371394 -0.14131,0 -1.85207,4.961563 -1.85207,5.371394 0,0.101671 0.83343,0.184857 1.85207,0.184857 1.01864,0 1.85207,-0.08319 1.85207,-0.184857 z"
       style="fill:#ffffff;stroke-width:0.26458341" />
  </g>
</svg>
