<?xml version="1.0" encoding="UTF-8" standalone="no"?>
<svg
   xmlns:dc="http://purl.org/dc/elements/1.1/"
   xmlns:cc="http://creativecommons.org/ns#"
   xmlns:rdf="http://www.w3.org/1999/02/22-rdf-syntax-ns#"
   xmlns:svg="http://www.w3.org/2000/svg"
   xmlns="http://www.w3.org/2000/svg"
   id="svg6526"
   version="1.1"
   viewBox="0 0 26.458179 26.45833"
   height="26.45833mm"
   width="26.458179mm">
  <defs
     id="defs6520" />
  <metadata
     id="metadata6523">
    <rdf:RDF>
      <cc:Work
         rdf:about="">
        <dc:format>image/svg+xml</dc:format>
        <dc:type
           rdf:resource="http://purl.org/dc/dcmitype/StillImage" />
        <dc:title></dc:title>
      </cc:Work>
    </rdf:RDF>
  </metadata>
  <g
     transform="translate(-213.55662,-16.919645)"
     id="layer1">
    <path
       id="path3252-2"
       d="m 213.55662,40.070685 v -3.30729 h 0.79375 0.79375 v 1.91238 1.91238 l 2.18923,-2.17786 2.18925,-2.1779 0.58978,0.58979 0.58977,0.58978 -2.17787,2.18924 -2.17786,2.18927 h 1.91238 1.91237 v 0.79375 0.79375 h -3.30727 -3.30728 z m 19.84364,2.51354 v -0.79375 h 1.91238 1.91238 l -2.17787,-2.18927 -2.17787,-2.18924 0.58978,-0.58978 0.58978,-0.58979 2.18924,2.1779 2.18923,2.17786 v -1.91238 -1.91238 h 0.79375 0.79374 v 3.30729 3.30729 h -3.30727 -3.30727 z m -11.5218,-7.74237 c -0.073,-0.19031 -0.10009,-2.42543 -0.0601,-4.96692 l 0.0726,-4.62092 h 4.89476 4.89476 v 4.89479 4.8948 l -4.83462,0.0721 c -3.78953,0.0565 -4.86332,-0.003 -4.9674,-0.27387 z m 8.21453,-4.69305 v -3.30729 h -3.30727 -3.30727 l -0.0753,3.02654 c -0.0414,1.66458 -0.014,3.1863 0.061,3.38162 0.10597,0.27614 0.85803,0.33856 3.38255,0.28075 l 3.24629,-0.0743 z m -12.77537,-8.27352 -2.1735,-2.1735 v 1.91622 1.91622 h -0.79375 -0.79375 v -3.30729 -3.30729 h 3.30728 3.30727 v 0.79375 0.79375 h -1.91237 -1.91238 l 2.1844,2.19583 2.18442,2.19583 -0.61205,0.57499 -0.61206,0.57502 z m 16.14144,1.60015 -0.58978,-0.589781 2.17787,-2.189269 2.17787,-2.18924 h -1.91238 -1.91238 v -0.79375 -0.79375 h 3.30727 3.30727 v 3.30729 3.30729 h -0.79374 -0.79375 v -1.91238 -1.912411 l -2.18923,2.177891 -2.18924,2.17789 z"
       style="fill:#ffffff;stroke-width:0.26458341" />
  </g>
</svg>
