<?xml version="1.0" encoding="UTF-8" standalone="no"?>
<svg
   xmlns:dc="http://purl.org/dc/elements/1.1/"
   xmlns:cc="http://creativecommons.org/ns#"
   xmlns:rdf="http://www.w3.org/1999/02/22-rdf-syntax-ns#"
   xmlns:svg="http://www.w3.org/2000/svg"
   xmlns="http://www.w3.org/2000/svg"
   id="svg13980"
   version="1.1"
   viewBox="0 0 26.457771 20.380968"
   height="20.380968mm"
   width="26.457771mm">
  <defs
     id="defs13974" />
  <metadata
     id="metadata13977">
    <rdf:RDF>
      <cc:Work
         rdf:about="">
        <dc:format>image/svg+xml</dc:format>
        <dc:type
           rdf:resource="http://purl.org/dc/dcmitype/StillImage" />
        <dc:title></dc:title>
      </cc:Work>
    </rdf:RDF>
  </metadata>
  <g
     transform="translate(-186.34254,-81.190467)"
     id="layer1">
    <path
       id="path3228-8"
       d="m 186.66004,101.24594 c -0.39674,-0.39674 -0.43149,-4.795938 -0.0436,-5.520708 0.24391,-0.45577 0.57595,-0.51179 3.03338,-0.51179 3.01046,0 3.30727,0.1528 3.30727,1.70238 0,0.57233 0.12013,0.67887 0.76545,0.67887 0.42099,0 0.8213,-0.14883 0.88959,-0.33073 0.0683,-0.1819 0.74788,-2.05713 1.51021,-4.16718 0.76232,-2.11006 1.57538,-3.985289 1.80679,-4.167189 0.23141,-0.1819 0.87423,-0.33073 1.4285,-0.33073 0.99049,0 1.00776,-0.0172 1.00776,-1.005421 0,-0.552979 0.14287,-1.14829 0.3175,-1.32291 0.36384,-0.36386 5.42461,-0.44329 5.97541,-0.0938 0.25184,0.15978 0.32034,0.997801 0.26458,3.237101 l -0.0752,3.021459 h -3.17499 -3.17498 l -0.0814,-1.12448 c -0.0751,-1.038279 -0.13864,-1.124479 -0.82863,-1.124479 -0.72538,0 -0.79216,0.12452 -2.27844,4.247969 -0.94591,2.62429 -1.70968,4.34348 -1.99822,4.49791 -0.25689,0.13748 -0.89161,0.24996 -1.4105,0.24996 -0.89093,0 -0.94344,0.0486 -0.94344,0.873118 0,0.48022 -0.14286,1.016 -0.31749,1.19063 -0.434,0.43402 -5.54554,0.43402 -5.97955,0 z m 4.65603,-2.791348 0.0788,-1.65365 h -1.7324 -1.73241 v 1.5434 c 0,0.84889 0.0846,1.62798 0.18793,1.731318 0.10337,0.10338 0.84751,0.15299 1.65364,0.11026 l 1.46571,-0.0777 z m 9.04931,-0.84386 v -0.80979 h 4.77449 c 6.53108,0 6.07336,0.5248 6.07336,-6.963749 0,-5.33038 -0.0324,-5.70606 -0.54837,-6.362011 l -0.54836,-0.69715 h -10.54486 -10.54487 l -0.54837,0.69715 c -0.50695,0.64447 -0.54837,1.04412 -0.54837,5.29164 v 4.59454 h -0.79374 -0.79375 v -4.54668 c 0,-3.98965 0.0641,-4.67916 0.52355,-5.62816 0.98648,-2.03782 0.72021,-1.99599 12.70555,-1.99599 11.98533,0 11.71906,-0.0418 12.70555,1.99599 0.4706,0.97213 0.52349,1.64158 0.52312,6.620351 -5.3e-4,6.093109 -0.14592,6.780689 -1.67173,7.901299 -0.68166,0.50065 -1.17878,0.55507 -5.75466,0.63016 l -5.00854,0.0822 z"
       style="fill:#008542;stroke-width:0.26458341" />
  </g>
</svg>
