<?xml version="1.0" encoding="UTF-8" standalone="no"?>
<svg
   xmlns:dc="http://purl.org/dc/elements/1.1/"
   xmlns:cc="http://creativecommons.org/ns#"
   xmlns:rdf="http://www.w3.org/1999/02/22-rdf-syntax-ns#"
   xmlns:svg="http://www.w3.org/2000/svg"
   xmlns="http://www.w3.org/2000/svg"
   id="svg11716"
   version="1.1"
   viewBox="0 0 24.8776 26.45837"
   height="26.45837mm"
   width="24.8776mm">
  <defs
     id="defs11710" />
  <metadata
     id="metadata11713">
    <rdf:RDF>
      <cc:Work
         rdf:about="">
        <dc:format>image/svg+xml</dc:format>
        <dc:type
           rdf:resource="http://purl.org/dc/dcmitype/StillImage" />
        <dc:title></dc:title>
      </cc:Work>
    </rdf:RDF>
  </metadata>
  <g
     transform="translate(-185.62072,-279.99105)"
     id="layer1">
    <path
       id="path3236-8"
       d="m 185.62072,302.34829 v -4.10105 h 2.51353 2.51353 v 4.10105 4.10104 h -2.51353 -2.51353 z m 3.43957,0 v -2.51355 h -0.92604 -0.92604 v 2.51355 2.51354 h 0.92604 0.92604 z m 3.17498,-3.3073 v -7.40833 h 2.51353 2.51353 v 7.40833 7.40834 h -2.51353 -2.51353 z m 3.43957,0 v -5.82083 h -0.92604 -0.92604 v 5.82083 5.82084 h 0.92604 0.92604 z m 3.17498,1.57758 v -5.83075 l 2.44738,0.0761 2.44738,0.0761 0.0713,5.75468 0.0713,5.75469 h -2.51868 -2.51869 z m 3.38013,0.0761 -0.0729,-4.16719 -0.85989,-0.0829 -0.85989,-0.0829 v 4.25008 4.25011 h 0.93276 0.93275 z m 3.23441,-3.38336 v -9.13805 l 2.44739,0.0761 2.44737,0.0761 0.0696,9.06198 0.0696,9.06198 h -2.51699 -2.51701 z m 3.37754,0.0761 -0.0703,-7.47448 -0.85989,-0.0829 -0.8599,-0.0829 v 7.55738 7.5574 h 0.93016 0.93017 z m -22.34052,-3.21308 c -0.58862,-0.50631 -0.73634,-0.85696 -0.73634,-1.74787 0,-1.48812 0.97196,-2.38125 2.59144,-2.38125 1.00632,0 1.26409,-0.14716 2.56492,-1.46433 1.32298,-1.33961 1.4468,-1.56747 1.45362,-2.67518 0.006,-0.9906 0.14112,-1.32577 0.74235,-1.84293 1.43197,-1.23174 3.35279,-0.64532 3.90315,1.19163 0.23841,0.79574 0.5381,1.12514 1.40817,1.54787 1.00822,0.48982 1.17122,0.50247 1.85556,0.14391 0.41656,-0.21826 1.06888,-0.32936 1.46662,-0.24982 0.61059,0.12213 0.95615,-0.0987 2.3399,-1.49508 1.2995,-1.31139 1.59233,-1.75753 1.46722,-2.2355 -0.34889,-1.33289 1.05019,-2.97473 2.53488,-2.97473 0.29596,0 0.90909,0.33147 1.36251,0.7366 0.65201,0.58256 0.82437,0.94916 0.82437,1.75344 0,1.47442 -0.94023,2.34831 -2.49302,2.31715 -1.08437,-0.0217 -1.2775,0.0863 -2.65892,1.48727 -1.36381,1.38316 -1.48803,1.60811 -1.47098,2.66377 0.0248,1.53543 -0.85289,2.47177 -2.31697,2.47177 -0.80427,0 -1.17089,-0.17235 -1.75347,-0.82439 -0.40511,-0.45342 -0.73657,-1.0582 -0.73657,-1.34401 0,-0.34329 -0.37405,-0.71043 -1.10234,-1.08196 -0.97784,-0.49887 -1.21468,-0.5253 -2.09722,-0.23402 -0.5472,0.18058 -1.22964,0.26696 -1.51653,0.19193 -0.38391,-0.10038 -0.94259,0.29178 -2.11612,1.48542 -1.36518,1.38856 -1.59357,1.7599 -1.588,2.58197 0.008,1.22515 -0.43066,2.04057 -1.27035,2.35981 -1.07339,0.4081 -1.87345,0.29327 -2.65788,-0.38147 z m 2.26649,-1.31744 c 0.44395,-0.53494 0.0666,-1.22418 -0.67023,-1.22418 -0.75508,0 -1.08592,0.63506 -0.62205,1.19402 0.40792,0.49149 0.89987,0.50299 1.29228,0.0302 z m 13.10574,-3.22744 c 0.51769,-0.51769 0.52219,-0.75404 0.0223,-1.16893 -0.7877,-0.65373 -1.84492,0.40349 -1.19118,1.19118 0.41489,0.49993 0.65123,0.49543 1.16892,-0.0222 z m -6.49119,-3.38715 c 0.44396,-0.53496 0.0666,-1.22417 -0.67024,-1.22417 -0.75507,0 -1.08592,0.63505 -0.62205,1.19399 0.40793,0.49151 0.89987,0.503 1.29229,0.0302 z m 13.10573,-3.22744 c 0.51769,-0.51771 0.52219,-0.75403 0.0223,-1.16892 -0.78769,-0.65374 -1.84491,0.40348 -1.19119,1.19118 0.4149,0.49993 0.65124,0.49543 1.16892,-0.0222 z"
       style="fill:#008542;stroke-width:0.26458341" />
  </g>
</svg>
